<svg width="39" height="47" viewBox="0 0 39 47" fill="none" xmlns="http://www.w3.org/2000/svg">
<path d="M29.3849 15.8652L30.3094 16.2465L29.3849 15.8652C28.8469 17.1698 28.0583 18.3549 27.0645 19.3529C26.0708 20.3509 24.8912 21.1424 23.5933 21.6823C22.2955 22.2222 20.9046 22.5 19.5 22.5C18.0954 22.5 16.7045 22.2222 15.4067 21.6823C14.1088 21.1424 12.9292 20.3509 11.9355 19.3529C10.9417 18.3549 10.1531 17.1698 9.61506 15.8652C9.07699 14.5607 8.8 13.1623 8.8 11.75C8.8 8.89755 9.92835 6.16278 11.9355 4.14709C13.9424 2.13155 16.6636 1 19.5 1C22.3364 1 25.0576 2.13155 27.0645 4.14709C29.0717 6.16278 30.2 8.89755 30.2 11.75C30.2 13.1623 29.923 14.5607 29.3849 15.8652ZM38 43.0833C38 43.8884 37.8024 44.4256 37.5575 44.7946C37.3085 45.1696 36.9698 45.4317 36.6013 45.6168C36.2287 45.8038 35.8441 45.9023 35.5443 45.9525C35.3967 45.9772 35.276 45.9892 35.196 45.9949C35.1562 45.9978 35.1271 45.999 35.1103 45.9996L35.0968 46L35.0982 46H35.0954H3.90458H3.90179L3.90324 46L3.88966 45.9996C3.87294 45.999 3.84377 45.9978 3.80397 45.9949C3.72403 45.9892 3.60327 45.9772 3.45571 45.9525C3.15587 45.9023 2.77129 45.8038 2.39874 45.6168C2.0302 45.4317 1.69146 45.1696 1.44251 44.7946C1.19759 44.4256 1 43.8884 1 43.0833C1 41.3631 1.89007 37.6766 4.66063 34.4304C7.39023 31.2323 11.9842 28.4167 19.5 28.4167C27.0158 28.4167 31.6098 31.2323 34.3394 34.4304C37.1099 37.6766 38 41.3631 38 43.0833Z" stroke="#989898" stroke-width="2"/>
</svg>
