<svg width="27" height="35" viewBox="0 0 27 35" fill="none" xmlns="http://www.w3.org/2000/svg">
    <path d="M13.5 0C10.7875 0 8.425 1.1375 6.9375 3.01875C5.45 4.9 4.75 7.35 4.75 9.84375C4.75 12.8625 5.45 15.3125 5.84375 17.5H0.375V21.875H5.7125C5.23125 23.8438 4.09375 26.075 1.075 29.1375L0.375 29.7062V35.0438H26.625V30.6688H5.14375C7.94375 27.475 9.43125 24.5438 10.0875 21.9188H17.875V17.5438H10.35C10 14.5688 9.125 12.1187 9.125 9.8875C9.125 8.18125 9.60625 6.69375 10.35 5.775C11.0938 4.85625 11.9688 4.41875 13.5 4.41875C15.2063 4.41875 16.1687 4.9 16.7812 5.5125C17.3937 6.125 17.875 7.0875 17.875 8.79375H22.25C22.25 6.25625 21.5062 3.98125 19.9312 2.3625C18.3125 0.74375 16.0375 0.04375 13.5 0.04375V0Z"
          fill="#989898"/>
</svg>
