<svg width="24" height="24" viewBox="0 0 24 24" fill="none" xmlns="http://www.w3.org/2000/svg">
    <path d="M18.0938 16.8747H17.6875V15.2497H18.0938C19.0635 15.2885 20.0088 14.9405 20.722 14.2822C21.4351 13.624 21.8575 12.7094 21.8963 11.7397C21.935 10.77 21.587 9.82463 20.9288 9.11152C20.2705 8.39841 19.356 7.976 18.3863 7.93721H17.6875L17.6063 7.27096C17.426 5.90308 16.7547 4.64735 15.7173 3.73771C14.6799 2.82807 13.3472 2.32653 11.9675 2.32653C10.5878 2.32653 9.25512 2.82807 8.21774 3.73771C7.18037 4.64735 6.50902 5.90308 6.32876 7.27096L6.31251 7.93721H5.61376C4.64406 7.976 3.72949 8.39841 3.07123 9.11152C2.41298 9.82463 2.06497 10.77 2.10376 11.7397C2.14254 12.7094 2.56496 13.624 3.27806 14.2822C3.99117 14.9405 4.93656 15.2885 5.90626 15.2497H6.31251V16.8747H5.90626C4.60334 16.8665 3.34945 16.3769 2.38568 15.5C1.42191 14.6232 0.816283 13.4211 0.685238 12.1247C0.554193 10.8284 0.906981 9.52937 1.67577 8.47741C2.44457 7.42544 3.5751 6.69481 4.85001 6.42596C5.20077 4.79001 6.10194 3.32382 7.40314 2.27203C8.70434 1.22025 10.3269 0.646484 12 0.646484C13.6731 0.646484 15.2957 1.22025 16.5969 2.27203C17.8981 3.32382 18.7992 4.79001 19.15 6.42596C20.4249 6.69481 21.5554 7.42544 22.3242 8.47741C23.093 9.52937 23.4458 10.8284 23.3148 12.1247C23.1837 13.4211 22.5781 14.6232 21.6143 15.5C20.6506 16.3769 19.3967 16.8665 18.0938 16.8747Z"
          fill="#989898"/>
    <path d="M12.8125 20.2631V10.375H11.1875V20.2631L9.08312 18.1669L7.9375 19.3125L12 23.375L16.0625 19.3125L14.9169 18.1669L12.8125 20.2631Z"
          fill="#989898"/>
</svg>
