<svg width="18" height="18" viewBox="0 0 18 18" fill="none" xmlns="http://www.w3.org/2000/svg">
    <path d="M16.9062 15.9609H1.09375C0.713477 15.9609 0.40625 16.2682 0.40625 16.6484V17.4219C0.40625 17.5164 0.483594 17.5938 0.578125 17.5938H17.4219C17.5164 17.5938 17.5938 17.5164 17.5938 17.4219V16.6484C17.5938 16.2682 17.2865 15.9609 16.9062 15.9609ZM3.53652 14.1562C3.57949 14.1562 3.62246 14.152 3.66543 14.1455L7.2791 13.5117C7.32207 13.5031 7.36289 13.4838 7.39297 13.4516L16.5002 4.34434C16.5201 4.32446 16.5359 4.30085 16.5467 4.27486C16.5575 4.24887 16.563 4.22101 16.563 4.19287C16.563 4.16473 16.5575 4.13687 16.5467 4.11088C16.5359 4.08489 16.5201 4.06128 16.5002 4.04141L12.9295 0.468555C12.8887 0.427734 12.835 0.40625 12.777 0.40625C12.7189 0.40625 12.6652 0.427734 12.6244 0.468555L3.51719 9.57578C3.48496 9.60801 3.46563 9.64668 3.45703 9.68965L2.82324 13.3033C2.80234 13.4184 2.80981 13.5369 2.845 13.6484C2.88019 13.76 2.94204 13.8613 3.0252 13.9436C3.16699 14.0811 3.34531 14.1562 3.53652 14.1562ZM4.98457 10.4094L12.777 2.61914L14.3518 4.19394L6.55937 11.9842L4.64941 12.3215L4.98457 10.4094Z"
          fill="#989898"/>
</svg>
