<svg width="193" height="193" viewBox="0 0 193 193" fill="none" xmlns="http://www.w3.org/2000/svg">
<path d="M4 96.5C4 45.4187 45.4187 4 96.5 4C147.581 4 189 45.4187 189 96.5C189 147.581 147.581 189 96.5 189C45.4187 189 4 147.581 4 96.5Z" stroke="#D30000" stroke-width="8"/>
<path d="M87.8828 143.888C87.8828 146.173 88.7906 148.365 90.4064 149.981C92.0222 151.596 94.2138 152.504 96.4989 152.504C98.784 152.504 100.976 151.596 102.591 149.981C104.207 148.365 105.115 146.173 105.115 143.888C105.115 141.603 104.207 139.411 102.591 137.796C100.976 136.18 98.784 135.272 96.4989 135.272C94.2138 135.272 92.0222 136.18 90.4064 137.796C88.7906 139.411 87.8828 141.603 87.8828 143.888Z" fill="#D30000"/>
<path d="M96.5 35.7407V128.667" stroke="#D30000" stroke-width="8"/>
</svg>
