<svg width="31" height="31" viewBox="0 0 31 31" fill="none" xmlns="http://www.w3.org/2000/svg">
    <path d="M0.5 15.3125C0.5 7.13259 7.13259 0.5 15.3125 0.5C23.4924 0.5 30.125 7.13259 30.125 15.3125C30.125 23.4924 23.4924 30.125 15.3125 30.125C7.13259 30.125 0.5 23.4924 0.5 15.3125Z"
          stroke="#989898"/>
    <path d="M19.127 8.63721C18.1016 7.73828 16.748 7.24609 15.3125 7.24609C13.877 7.24609 12.5234 7.7417 11.498 8.63721C10.4316 9.57031 9.84375 10.8247 9.84375 12.168V12.4277C9.84375 12.5781 9.9668 12.7012 10.1172 12.7012H11.7578C11.9082 12.7012 12.0312 12.5781 12.0312 12.4277V12.168C12.0312 10.6606 13.5044 9.43359 15.3125 9.43359C17.1206 9.43359 18.5938 10.6606 18.5938 12.168C18.5938 13.231 17.8418 14.2051 16.6763 14.6528C15.9517 14.9297 15.3364 15.415 14.8955 16.0508C14.4478 16.7002 14.2153 17.4795 14.2153 18.269V19.0039C14.2153 19.1543 14.3384 19.2773 14.4888 19.2773H16.1294C16.2798 19.2773 16.4028 19.1543 16.4028 19.0039V18.228C16.4046 17.8962 16.5063 17.5726 16.6947 17.2995C16.8831 17.0263 17.1494 16.8163 17.459 16.6968C19.4756 15.9209 20.7778 14.1436 20.7778 12.168C20.7813 10.8247 20.1934 9.57031 19.127 8.63721ZM13.9453 22.832C13.9453 23.1946 14.0894 23.5424 14.3458 23.7988C14.6021 24.0552 14.9499 24.1992 15.3125 24.1992C15.6751 24.1992 16.0229 24.0552 16.2792 23.7988C16.5356 23.5424 16.6797 23.1946 16.6797 22.832C16.6797 22.4694 16.5356 22.1217 16.2792 21.8653C16.0229 21.6089 15.6751 21.4648 15.3125 21.4648C14.9499 21.4648 14.6021 21.6089 14.3458 21.8653C14.0894 22.1217 13.9453 22.4694 13.9453 22.832Z"
          fill="#989898"/>
</svg>
