<?xml version="1.0" encoding="utf-8"?>
<!-- Generator: Adobe Illustrator 23.0.6, SVG Export Plug-In . SVG Version: 6.00 Build 0)  -->
<svg version="1.1" id="Слой_1" xmlns="http://www.w3.org/2000/svg" xmlns:xlink="http://www.w3.org/1999/xlink" x="0px" y="0px"
	 viewBox="0 0 1754.6 654.6" style="enable-background:new 0 0 1754.6 654.6;" xml:space="preserve">
<style type="text/css">
	.st0{fill:#FFFFFF;}
	.st1{fill:url(#SVGID_1_);}
</style>
<g>
	<g>
		<path class="st0" d="M796.5,477.6h-26.1V354.9h42.1c15.3,0,27.1,3.2,35.3,9.8c8.2,6.5,12.3,16,12.3,28.5c0,7.7-2,14.4-5.9,20
			s-9.5,10-16.8,13l26.9,51.4h-28.2l-22.5-46.7h-17L796.5,477.6L796.5,477.6z M828.2,407.3c3.6-3.1,5.5-7.8,5.5-14.1
			c0-6.5-1.8-11.2-5.5-14.2c-3.6-3-9.3-4.5-16.9-4.5h-14.9v37.4h14.9C819,411.9,824.6,410.4,828.2,407.3"/>
		<path class="st0" d="M915.6,460.3c4.5,0,9-0.5,13.6-1.6c4.6-1,9.6-2.7,15.1-5l6.3,16.2c-13.8,6.4-26.5,9.5-38.1,9.5
			c-14.3,0-25.6-4.2-33.7-12.5c-8.2-8.3-12.2-19.9-12.2-34.7c0-14.8,4-26.3,12-34.5c8-8.3,19.2-12.4,33.6-12.4
			c27.1,0,40.7,15.4,40.7,46.1v5.9h-61C893.2,452.6,901.1,460.3,915.6,460.3 M912.4,403.2c-5.8,0-10.3,1.6-13.6,4.7
			s-5.5,7.9-6.5,14.2H929C928.3,409.5,922.7,403.2,912.4,403.2"/>
		<path class="st0" d="M1026.4,385.5c9.5,0,16.8,2.8,21.9,8.3c5.1,5.6,7.7,13.4,7.7,23.5v60.3h-26v-58.8c0-5.3-1-9.1-3.1-11.5
			s-5.4-3.6-10.1-3.6c-4.2,0-8.1,0.9-11.7,2.8c-3.6,1.9-6.5,4.4-8.7,7.6v63.4h-26V387H992l2.8,12.6
			C1002.8,390.2,1013.3,385.5,1026.4,385.5"/>
		<path class="st0" d="M1112.7,479c-19.9,0-29.9-9.5-29.9-28.6v-45.3h-15V387h16.7l5-25.9h19.1V387h24.8v18.2h-24.8v41.7
			c0,4.6,0.9,7.9,2.6,9.9s4.7,3,8.8,3c3.5,0,7.3-0.7,11.4-2.1l3.8,16.7C1127.4,477.4,1119.9,479,1112.7,479"/>
		<path class="st0" d="M1225.5,403c-0.8-4.2-1.4-7.4-1.8-9.6l-2.1-11.5l-2,11.5c-0.5,2.2-1.1,5.4-1.8,9.6c-0.8,4.2-1.5,7.7-2.2,10.4
			l-14.9,64.2h-35L1136,354.9h26.3l13.2,57.6c1.9,8.5,3.5,15.2,4.8,20.3l4.6,20.4l9.4-40.7l13.3-57.6h28.1l13.4,57.6l9.4,40.7
			c1.9-8.3,3.5-15.1,4.8-20.4l4.6-20.3l13.2-57.6h26.3l-29.7,122.7h-35l-14.9-64.2C1227,410.7,1226.3,407.2,1225.5,403"/>
		<path class="st0" d="M1377,394.6c6.8,6.3,10.2,15.5,10.2,27.5v55.5h-21.5l-3-10.7c-3.7,3.9-7.9,6.9-12.6,9
			c-4.6,2.1-9.6,3.1-14.9,3.1c-9.4,0-16.8-2.4-22.3-7.3c-5.5-4.8-8.2-11.3-8.2-19.5c0-9.5,4-16.9,12-22.2c8-5.3,19.1-7.9,33.4-7.9
			h11.1v-2.3c-0.3-10.5-6.3-15.7-17.8-15.7c-3.9,0-8.5,0.6-13.7,1.7c-5.2,1.2-9.9,2.6-14,4.4l-5.5-17.5c6-2.4,12.3-4.3,18.8-5.6
			c6.6-1.3,12.8-2,18.5-2C1360.4,385.2,1370.2,388.3,1377,394.6 M1335.2,440.1c-4.1,2.5-6.1,6.1-6.1,10.6c0,3.7,1.1,6.5,3.4,8.5
			c2.3,1.9,5.4,2.9,9.6,2.9c3.7,0,7.3-0.8,10.7-2.5c3.4-1.6,6.3-3.8,8.6-6.6v-16.7h-8.9C1345,436.3,1339.3,437.6,1335.2,440.1"/>
		<rect x="1409.9" y="347.5" class="st0" width="25.9" height="130.1"/>
		<rect x="1461.4" y="347.5" class="st0" width="25.9" height="130.1"/>
		<path class="st0" d="M1554.8,460.3c4.5,0,9-0.5,13.6-1.6c4.6-1,9.6-2.7,15.1-5l6.3,16.2c-13.8,6.4-26.5,9.5-38.1,9.5
			c-14.3,0-25.6-4.2-33.7-12.5c-8.2-8.3-12.3-19.9-12.3-34.7c0-14.8,4-26.3,12-34.5c8-8.3,19.2-12.4,33.6-12.4
			c27.1,0,40.7,15.4,40.7,46.1v5.9h-61C1532.3,452.6,1540.3,460.3,1554.8,460.3 M1551.5,403.2c-5.8,0-10.3,1.6-13.6,4.7
			c-3.3,3.1-5.5,7.9-6.5,14.2h36.7C1567.4,409.5,1561.9,403.2,1551.5,403.2"/>
		<path class="st0" d="M1643.7,479c-19.9,0-29.9-9.5-29.9-28.6v-45.3h-15V387h16.6l5-25.9h19.1V387h24.8v18.2h-24.8v41.7
			c0,4.6,0.9,7.9,2.6,9.9s4.7,3,8.8,3c3.6,0,7.4-0.7,11.4-2.1l3.8,16.7C1658.4,477.4,1650.9,479,1643.7,479"/>
	</g>
	<path class="st0" d="M583.1,211.2c0-5.3,0-9.4,0-13.5c-0.6-50.2-13.4-63.3-62.9-63.7L509,109.6c-9.1-20-32.8-28.9-52.8-19.7
		l-1.8,0.8l-3.9-6.4c-5.5-9.1-14.2-15.5-24.6-18.1c-10.3-2.6-21.1-0.9-30.2,4.6l-11.5,6.9c-5.9-5.4-13.3-8.8-21.4-9.9
		c-10.6-1.4-21,1.4-29.5,7.8L257,134c-47.6,0-95.3,0-142.9,0c-40.8,0-57,16.2-57.1,57c-0.1,122.2-0.1,244.4,0,366.7
		c0,40.8,16.2,57.1,56.9,57.2c152,0.1,303.9,0.1,455.9,0c40.9,0,57.1-16.2,57.2-56.9c0.1-92.5-1-185,0.5-277.5
		C628,246,620.3,220.2,583.1,211.2 M566.5,213h-10.3l-29.4-64.5C566.6,150.3,572.1,162.1,566.5,213 M462.8,104.4
		c12-5.5,26.2-0.2,31.7,11.8l44.2,96.9h-10.3L462.8,104.4L462.8,104.4z M404,84.4c5.5-3.3,11.9-4.3,18.1-2.7
		c6.2,1.5,11.4,5.4,14.7,10.8l72.9,120.6h-21L394.7,90L404,84.4z M343.1,88.3c5.1-3.9,11.3-5.5,17.7-4.7c6.3,0.9,11.9,4.1,15.8,9.2
		l92,120.4H322.7c-7.9-10.4-15.9-20.8-23.9-31.3c11.2,2.3,20.7-0.6,29.2-7.8c4.9,6.5,9.7,12.8,14.6,19.1c5.4-4.1,10.7-8.1,16-12.2
		c-5.4-7-10.7-14-16.1-21.1c1.4-1.5,2.6-3,3.9-4.4c3.6-3.7,7.4-7.3,12.3-9.2c5.5-2.2,10.6-1.6,15.1,2.2c5.8,4.9,9.6,11.2,11.4,18.6
		c0.1,0.3,0.2,0.6,0.3,1c6.9-3.3,13.7-6.5,20.5-9.8c-0.7-4.5-2.5-8.6-4.7-12.6c-1-1.9-2.2-3.7-3.3-5.6c-1.4-1.8-2.7-3.6-4.1-5.4
		c-0.2-0.2-0.5-0.4-0.7-0.6c-4-4.7-8.8-8.6-14.3-11.5c-7.4-3.8-15.2-5.2-23.5-3.8c-10.1,1.7-18,7.3-25.1,14.2
		c-1.5,1.5-3,3.1-4.6,4.7c-3.2-4.1-6.3-8.2-9.4-12.3c-5.4,4.1-10.6,8.1-16,12.2c3.9,5,7.7,10,11.5,15.1c-0.8,0.7-1.5,1.4-2.3,2.1
		c-3.8,3.3-7.8,6.1-12.8,7.2c-9,2.1-17.5,0.6-25.6-3.6c-0.8-0.4-1.3-0.3-2,0.2c-3.8,3-7.7,5.9-11.5,8.8
		c11.6,15.2,23.2,30.3,34.8,45.5H179.7L343.1,88.3z M71.4,181.7c-0.7-20.6,13.9-33.4,39.9-33.4c42.3-0.1,84.7,0,127-0.1l-84.9,64.9
		c-14.1,0-28.1,0-42.2-0.2C86.2,212.7,72.1,201.3,71.4,181.7"/>
	
		<linearGradient id="SVGID_1_" gradientUnits="userSpaceOnUse" x1="409.2" y1="242.85" x2="647.7" y2="242.85" gradientTransform="matrix(1 0 0 -1 0 656)">
		<stop  offset="0" style="stop-color:#FFDD47"/>
		<stop  offset="0.507" style="stop-color:#B78B10"/>
		<stop  offset="0.7617" style="stop-color:#A77E12"/>
		<stop  offset="1" style="stop-color:#B88605"/>
	</linearGradient>
	<path class="st1" d="M449.9,509.5h197.8V316.8H449.9c-22.5,0-40.7,18.2-40.7,40.7v111.4C409.2,491.3,427.4,509.5,449.9,509.5"/>
	<path class="st0" d="M609.7,380.7l-74.2,14.9c-6.2-11.5-18.4-19.3-32.4-19.3c-20.3,0-36.8,16.5-36.8,36.8s16.5,36.8,36.8,36.8
		c14.6,0,27.2-8.5,33.2-20.9l73.1,16.4c7.1,1.6,13.9-3.8,13.9-11.1v-42.5C623.3,384.7,616.7,379.3,609.7,380.7"/>
</g>
</svg>
