<?xml version="1.0" encoding="utf-8"?>
<!-- Generator: Adobe Illustrator 23.0.6, SVG Export Plug-In . SVG Version: 6.00 Build 0)  -->
<svg version="1.1" id="Capa_1" xmlns="http://www.w3.org/2000/svg" xmlns:xlink="http://www.w3.org/1999/xlink" x="0px" y="0px"
	 viewBox="0 0 500.9 500.9" style="enable-background:new 0 0 500.9 500.9;" xml:space="preserve">
<style type="text/css">
	.st0{fill:#10069F;}
</style>
<g>
	<g>
		<path d="M289.8,437.3h-78.6c-4.6,0-8.3-3.7-8.3-8.3V184.1c0-4.6,3.7-8.3,8.3-8.3h78.6c4.6,0,8.3,3.7,8.3,8.3V429
			C298,433.6,294.3,437.3,289.8,437.3z M219.4,420.7h62.1V192.4h-62.1V420.7z"/>
		<path d="M289.8,439.8h-78.6c-5.9,0-10.8-4.8-10.8-10.8V184.1c0-5.9,4.8-10.8,10.8-10.8h78.6c5.9,0,10.8,4.8,10.8,10.8
			V429C300.5,434.9,295.7,439.8,289.8,439.8z M211.1,178.4c-3.2,0-5.8,2.6-5.8,5.8V429c0,3.2,2.6,5.8,5.8,5.8h78.6
			c3.2,0,5.8-2.6,5.8-5.8V184.1c0-3.2-2.6-5.8-5.8-5.8L211.1,178.4L211.1,178.4z M284,423.2h-67.1V189.9H284V423.2z M221.9,418.2
			H279V194.9h-57.1V418.2z"/>
	</g>
	<g>
		<path d="M250.5,158.8c-26.2,0-47.6-21.3-47.6-47.6s21.3-47.6,47.6-47.6c26.2,0,47.6,21.3,47.6,47.6
			S276.7,158.8,250.5,158.8z M250.5,80.2c-17.1,0-31,13.9-31,31s13.9,31,31,31s31-13.9,31-31S267.6,80.2,250.5,80.2z"/>
		<path d="M250.5,161.3c-27.6,0-50.1-22.5-50.1-50.1s22.5-50.1,50.1-50.1s50.1,22.5,50.1,50.1S278.1,161.3,250.5,161.3z
			 M250.5,66.1c-24.9,0-45.1,20.2-45.1,45.1s20.2,45.1,45.1,45.1s45.1-20.2,45.1-45.1S275.3,66.1,250.5,66.1z M250.5,144.8
			c-18.5,0-33.5-15-33.5-33.5s15-33.5,33.5-33.5s33.5,15,33.5,33.5S268.9,144.8,250.5,144.8z M250.5,82.7
			c-15.7,0-28.5,12.8-28.5,28.5s12.8,28.5,28.5,28.5s28.5-12.8,28.5-28.5S266.2,82.7,250.5,82.7z"/>
	</g>
</g>
</svg>
