<?xml version="1.0" encoding="utf-8"?>
<!-- Generator: Adobe Illustrator 23.0.6, SVG Export Plug-In . SVG Version: 6.00 Build 0)  -->
<svg version="1.1" id="Capa_1" xmlns="http://www.w3.org/2000/svg" xmlns:xlink="http://www.w3.org/1999/xlink" x="0px" y="0px"
	 viewBox="0 0 500.9 500.9" style="enable-background:new 0 0 500.9 500.9;" xml:space="preserve">
<style type="text/css">
	.st0{fill:#10069F;}
</style>
<g>
	<g>
		<g>
			<path d="M237.3,443.9c-86.4,0-173.6-53.4-173.6-172.7c0-120.1,88.1-210.7,205-210.7c97.3,0,162.7,65.7,162.7,163.6
				c0,83.3-55.5,128.2-107.7,128.2c-22.2,0-40.8-8.6-51.1-23.5c-0.6-0.9-1.5-1.4-2.6-1.4c-0.8,0-1.6,0.3-2.2,0.8
				c-13.9,12.1-32.1,19.7-47.5,19.7c-39.3,0-65.8-29.6-65.8-73.6c0-54.4,39.6-115.1,96.3-115.1c10.9,0,20.2,3.1,27.6,9.2
				c0.6,0.5,1.4,0.8,2.1,0.8c1.4,0,2.7-0.9,3.1-2.2c0.9-2.6,3.3-4.3,6-4.3H333c1.9,0,3.7,0.8,4.9,2.3s1.7,3.4,1.3,5.2l-20.6,98.3
				c-3.6,14.8-1.8,21.2,0.4,23.9c2,2.5,5.9,3.8,11.7,3.8c21.1,0,43.8-26.9,43.8-70.4c0-69-41.5-110.1-111-110.1
				c-67.5,0-140.3,58.8-140.3,153.8c0,55,31.2,119.3,119.3,119.3c19.6,0,43.6-6.2,62.6-16.1l1.9-1c0.9-0.5,1.9-0.7,2.9-0.7
				c2.6,0,4.9,1.5,5.8,3.9l14.7,36.9c1.5,3.9,0,8.3-3.7,10.2C299.4,436.7,270.1,443.9,237.3,443.9z M268.7,76.8
				C159.4,76.8,80,158.5,80,271.1c0,115.4,84.7,156.4,157.3,156.4c25.9,0,49-4.8,70.8-14.6c2.5-1.1,3.7-4,2.6-6.6l-4.2-10.5
				c-0.8-2-2.7-3.3-4.8-3.3c-0.7,0-1.3,0.1-1.9,0.4c-18.7,7.6-39.6,12-57.2,12C180,404.9,107,369.4,107,269.3
				c0-105.1,81.3-170.1,156.6-170.1c79.7,0,127.3,47.3,127.3,126.5c0,54.3-30.6,86.7-60.1,86.7c-11.1,0-19.3-3.4-24.6-10
				c-6.5-8.2-7.6-20.5-3.5-37.6l17.1-82c0.2-1,0-2-0.7-2.7s-1.6-1.2-2.5-1.2h-17.4c-1.4,0-2.7,0.9-3.1,2.2l-3.9,11.8
				c-0.9,2.6-3.2,4.3-6,4.3h-3.4c-2.4,0-4.6-1.4-5.7-3.6l-0.5-1.1c-5.6-11.9-13.6-17.1-25.8-17.1c-47.1,0-80,52.1-80,98.8
				c0,34.8,19.4,57.3,49.4,57.3c15.7,0,35.4-10.9,45.7-25.4l0.6-0.8c1.2-1.6,3.1-2.6,5.1-2.6h3.3c2.9,0,5.5,2,6.1,4.9l0.3,1.5
				c3.7,16.3,20.3,26.8,42.2,26.8c44.3,0,91.4-39.2,91.4-111.9C415,136,356.2,76.8,268.7,76.8z M233.8,307.7
				c-9.3,0-30.9-3.6-30.9-37.4c0-28.7,17.8-70.2,50.1-70.2c11.8,0,21.5,6,27.3,17l0.3,0.6c0.7,1.2,0.9,2.7,0.6,4l-10.7,60
				c-0.2,1-0.6,1.9-1.2,2.7l-0.3,0.4C257.1,300.6,246.2,307.7,233.8,307.7z M253,216.5c-9.1,0-17.8,6.5-24.4,18.4
				c-5.8,10.4-9.4,24-9.4,35.4c0,21.1,10.2,21.1,14.5,21.1s10.5-1.6,20.6-14.2c0.3-0.4,0.6-0.9,0.7-1.5l9.2-51.7
				c0.2-1-0.1-2-0.8-2.7C260.8,218,257.4,216.5,253,216.5z"/>
		</g>
		<g>
			<path d="M268.7,62c96.4,0,161.2,65.1,161.2,162.1c0,82.3-54.7,126.7-106.2,126.7c-22,0-40.1-8.6-49.9-22.9
				c-0.9-1.3-2.4-2-3.9-2c-1.1,0-2.3,0.4-3.2,1.2c-13.4,11.7-31.1,19.3-46.5,19.3c-38.4,0-64.3-29-64.3-72.1
				c0-53.7,38.9-113.6,94.8-113.6c10.6,0,19.5,3,26.6,8.9c0.9,0.8,2,1.1,3.1,1.1c2,0,3.8-1.2,4.5-3.2s2.5-3.3,4.5-3.3H333
				c3,0,5.3,2.8,4.7,5.8l-20.6,98.3c-3,12.3-2.7,20.9,0.7,25.2c2.3,2.9,6.6,4.3,12.9,4.3c21.8,0,45.3-27.5,45.3-71.9
				c0-69.9-42.1-111.6-112.5-111.6c-68.2,0-141.8,59.4-141.8,155.3c0,89.2,65.1,120.8,120.8,120.8c19.9,0,44.1-6.2,63.3-16.3l1.9-1
				c0.7-0.4,1.5-0.5,2.2-0.5c1.9,0,3.7,1.1,4.4,3l14.7,36.9c1.3,3.1,0,6.7-3,8.3c-27.1,14.6-56.1,21.7-88.7,21.7
				c-85.7,0-172.1-52.9-172.1-171.2C65.2,151.9,152.7,62,268.7,62 M237.3,429c26,0,49.5-4.8,71.4-14.7c3.2-1.5,4.7-5.2,3.4-8.5
				l-4.2-10.5c-1-2.6-3.5-4.2-6.2-4.2c-0.8,0-1.7,0.2-2.5,0.5c-18.3,7.5-39,11.9-56.7,11.9c-61.9,0-134.1-35.1-134.1-134.1
				c0-104.1,80.5-168.6,155.1-168.6c78.8,0,125.8,46.7,125.8,125c0,53.3-29.8,85.2-58.6,85.2c-10.6,0-18.4-3.2-23.4-9.4
				c-6.2-7.8-7.2-19.7-3.2-36.3l17.1-82c0.6-3-1.6-5.8-4.7-5.8h-17.4c-2.1,0-3.9,1.3-4.5,3.3l-3.9,11.8c-0.7,2-2.5,3.3-4.5,3.3h-3.4
				c-1.8,0-3.5-1.1-4.3-2.7l-0.5-1.1c-5.9-12.4-14.3-18-27.2-18c-48,0-81.5,52.8-81.5,100.3c0,35.7,20,58.8,50.9,58.8
				c16.1,0,36.3-11.2,46.9-26l0.6-0.8c0.9-1.2,2.3-2,3.9-2h3.3c2.2,0,4.2,1.5,4.7,3.7l0.3,1.5c3.9,17,21.1,28,43.7,28
				c45,0,92.9-39.7,92.9-113.4c0-89-59.4-148.7-147.9-148.7c-110.2,0-190.2,82.4-190.2,195.9C78.5,387.7,164,429,237.3,429
				 M253,201.6c11.2,0,20.5,5.8,26,16.2l0.3,0.6c0.5,0.9,0.7,2,0.5,3.1l-10.7,60c-0.1,0.7-0.4,1.4-0.9,2l-0.3,0.4
				c-11.7,15.4-22.2,22.3-34.1,22.3c-8.8,0-29.4-3.5-29.4-35.9C204.4,242.2,221.7,201.6,253,201.6 M233.8,292.8
				c4.7,0,11.3-1.7,21.8-14.8c0.5-0.6,0.8-1.4,1-2.1l9.2-51.7c0.3-1.4-0.2-2.9-1.1-4c-3-3.5-6.8-5.3-11.6-5.3
				c-21.5,0-35.2,32.8-35.2,55.3C217.7,292.8,229.4,292.8,233.8,292.8 M268.7,59C151,59,62.2,150.2,62.2,271.1
				c0,55.3,19,101.1,55,132.2c31.2,27.1,73.9,42,120.1,42c33.1,0,62.6-7.2,90.2-22.1c4.3-2.3,6.2-7.5,4.4-12.1l-14.7-36.9
				c-1.2-3-4-4.9-7.2-4.9c-1.2,0-2.5,0.3-3.6,0.9l-1.9,1c-18.8,9.8-42.5,15.9-61.9,15.9c-30.5,0-58.7-9.3-79.4-26.3
				c-11.9-9.8-21.2-22-27.6-36.3c-7.1-15.9-10.8-34.5-10.8-55.3c0-94.1,72-152.3,138.8-152.3c33.8,0,61.6,9.9,80.5,28.7
				S373,192,373,225.5c0,19.8-5,37.9-13.9,50.9c-7.9,11.4-18.2,18-28.3,18c-5.2,0-8.9-1.1-10.5-3.2c-1.6-2-3.7-7.6-0.1-22.6v-0.1
				l20.6-98.3c0.5-2.3-0.1-4.7-1.6-6.5s-3.7-2.9-6-2.9h-43.4c-3.4,0-6.3,2.1-7.4,5.3c-0.3,0.9-1.1,1.2-1.7,1.2
				c-0.3,0-0.8-0.1-1.2-0.4c-7.7-6.3-17.3-9.6-28.6-9.6c-57.6,0-97.8,61.5-97.8,116.6c0,21.9,6.4,40.7,18.5,54.2
				c12.2,13.7,29.1,20.9,48.8,20.9c15.7,0,34.3-7.7,48.5-20c0.3-0.3,0.8-0.5,1.2-0.5c0.3,0,0.9,0.1,1.4,0.7
				c10.6,15.4,29.7,24.2,52.4,24.2c52.9,0,109.2-45.5,109.2-129.7c0-24.2-4-46.9-11.8-67.3c-7.7-20-19-37.6-33.5-52.2
				s-32-25.9-51.9-33.7C315.3,63,292.8,59,268.7,59L268.7,59z M237.3,426c-40.3,0-77.6-12.3-104.9-34.6
				c-15.8-12.9-28.1-28.9-36.6-47.7c-9.5-20.9-14.2-45.3-14.2-72.6c0-111.8,78.7-192.9,187.2-192.9c42.6,0,78.9,13.9,105,40.1
				c26.1,26.3,39.9,62.8,39.9,105.6c0,71.7-46.3,110.4-89.9,110.4c-21.2,0-37.2-10.1-40.8-25.7l-0.3-1.5c-0.8-3.6-3.9-6-7.6-6h-3.3
				c-2.5,0-4.9,1.2-6.3,3.2l-0.6,0.8c-10.1,14.1-29.3,24.8-44.5,24.8c-14.3,0-26.3-5.2-34.8-15c-8.6-9.9-13.1-24-13.1-40.8
				c0-46,32.2-97.3,78.5-97.3c11.7,0,19,4.9,24.4,16.3l0.5,1.1c1.3,2.7,4,4.4,7,4.4h3.4c3.4,0,6.3-2.1,7.4-5.3l3.9-11.8
				c0.2-0.7,0.9-1.2,1.7-1.2h17.4c0.7,0,1.2,0.4,1.4,0.7c0.2,0.2,0.5,0.8,0.4,1.5l-17.1,82c-4.2,17.6-3,30.3,3.7,38.8
				c5.5,7,14.2,10.6,25.7,10.6c30.3,0,61.6-33,61.6-88.2c0-39.2-11.8-71.7-34.3-93.9c-22.4-22.2-55.1-34-94.6-34
				c-76,0-158.1,65.6-158.1,171.6c0,24,4.2,45.5,12.5,64c7.5,16.8,18.5,31.1,32.4,42.6c24.1,19.7,56.8,30.6,92.2,30.6
				c17.8,0,38.9-4.4,57.8-12.1c0.4-0.2,0.9-0.3,1.4-0.3c1.5,0,2.8,0.9,3.4,2.3l4.2,10.5c0.7,1.8-0.1,3.9-1.8,4.7
				C285.8,421.3,262.9,426,237.3,426L237.3,426z M253,198.6c-15.1,0-28.8,9-38.6,25.3c-8.1,13.5-13,30.8-13,46.4
				c0,15,4.2,25.9,12.5,32.5c6.7,5.3,14.5,6.4,19.9,6.4c12.9,0,24.2-7.2,36.5-23.5l0.3-0.4c0.7-1,1.2-2.1,1.4-3.3l10.7-60
				c0.3-1.7,0-3.5-0.8-5l-0.3-0.6C275.6,205,265.4,198.6,253,198.6L253,198.6z M233.8,289.8c-4.2,0-13,0-13-19.6
				c0-11.2,3.5-24.5,9.2-34.7c3.7-6.6,11.5-17.7,23.1-17.7c4,0,6.9,1.3,9.3,4.2c0.4,0.4,0.5,1,0.4,1.5l-9.2,51.7
				c-0.1,0.3-0.2,0.6-0.4,0.8C243.5,288.3,237.7,289.8,233.8,289.8L233.8,289.8z"/>
		</g>
	</g>
</g>
</svg>
