<?xml version="1.0" encoding="utf-8"?>
<!-- Generator: Adobe Illustrator 23.0.6, SVG Export Plug-In . SVG Version: 6.00 Build 0)  -->
<svg version="1.1" id="Layer_1" xmlns="http://www.w3.org/2000/svg" xmlns:xlink="http://www.w3.org/1999/xlink" x="0px" y="0px"
	 viewBox="0 0 1010.7 958.2" style="enable-background:new 0 0 1010.7 958.2;" xml:space="preserve">
<style type="text/css">
	.st0{opacity:0.3;}
	.st1{fill:#1006A1;stroke:#1006A1;stroke-width:10;stroke-miterlimit:10;}
	.st2{opacity:0.3;fill:#1006A1;stroke:#1006A1;stroke-width:10;stroke-miterlimit:10;}
</style>
<g>
	<g>
		<g class="st0">
			<g>
				<path class="st1" d="M28.5,674.7h-16c-4.1,0-7.5-3.4-7.5-7.5s3.4-7.5,7.5-7.5h16c4.1,0,7.5,3.4,7.5,7.5S32.6,674.7,28.5,674.7z"
					/>
				<path class="st1" d="M90.5,674.7h-18c-4.1,0-7.5-3.4-7.5-7.5s3.4-7.5,7.5-7.5h18c4.1,0,7.5,3.4,7.5,7.5S94.6,674.7,90.5,674.7z"
					/>
			</g>
			<g>
				<path class="st1" d="M51,714.2c-4.1,0-7.5-3.4-7.5-7.5v-16c0-4.1,3.4-7.5,7.5-7.5s7.5,3.4,7.5,7.5v16
					C58.5,710.8,55.1,714.2,51,714.2z"/>
				<path class="st1" d="M51,654.2c-4.1,0-7.5-3.4-7.5-7.5v-18c0-4.1,3.4-7.5,7.5-7.5s7.5,3.4,7.5,7.5v18
					C58.5,650.8,55.1,654.2,51,654.2z"/>
			</g>
		</g>
		<g class="st0">
			<g>
				<path class="st1" d="M902.5,872.7h-16c-4.1,0-7.5-3.4-7.5-7.5s3.4-7.5,7.5-7.5h16c4.1,0,7.5,3.4,7.5,7.5
					S906.6,872.7,902.5,872.7z"/>
				<path class="st1" d="M964.5,872.7h-18c-4.1,0-7.5-3.4-7.5-7.5s3.4-7.5,7.5-7.5h18c4.1,0,7.5,3.4,7.5,7.5
					S968.6,872.7,964.5,872.7z"/>
			</g>
			<g>
				<path class="st1" d="M925,912.2c-4.1,0-7.5-3.4-7.5-7.5v-16c0-4.1,3.4-7.5,7.5-7.5s7.5,3.4,7.5,7.5v16
					C932.5,908.8,929.1,912.2,925,912.2z"/>
				<path class="st1" d="M925,852.2c-4.1,0-7.5-3.4-7.5-7.5v-18c0-4.1,3.4-7.5,7.5-7.5s7.5,3.4,7.5,7.5v18
					C932.5,848.8,929.1,852.2,925,852.2z"/>
			</g>
		</g>
		<g class="st0">
			<g>
				<path class="st1" d="M925.5,138.7h-16c-4.1,0-7.5-3.4-7.5-7.5c0-4.1,3.4-7.5,7.5-7.5h16c4.1,0,7.5,3.4,7.5,7.5
					C933,135.3,929.6,138.7,925.5,138.7z"/>
				<path class="st1" d="M987.5,138.7h-18c-4.1,0-7.5-3.4-7.5-7.5c0-4.1,3.4-7.5,7.5-7.5h18c4.1,0,7.5,3.4,7.5,7.5
					C995,135.3,991.6,138.7,987.5,138.7z"/>
			</g>
			<g>
				<path class="st1" d="M948,178.2c-4.1,0-7.5-3.4-7.5-7.5v-16c0-4.1,3.4-7.5,7.5-7.5s7.5,3.4,7.5,7.5v16
					C955.5,174.8,952.1,178.2,948,178.2z"/>
				<path class="st1" d="M948,118.2c-4.1,0-7.5-3.4-7.5-7.5v-18c0-4.1,3.4-7.5,7.5-7.5s7.5,3.4,7.5,7.5v18
					C955.5,114.8,952.1,118.2,948,118.2z"/>
			</g>
		</g>
		<path class="st2" d="M969.5,347.3c-13.4,0-24.3-10.9-24.3-24.3c0-13.4,10.9-24.3,24.3-24.3s24.3,10.9,24.3,24.3
			C993.8,336.4,982.9,347.3,969.5,347.3z M969.5,313.7c-5.1,0-9.3,4.2-9.3,9.3c0,5.1,4.2,9.3,9.3,9.3s9.3-4.2,9.3-9.3
			C978.8,317.9,974.6,313.7,969.5,313.7z"/>
		<g class="st0">
			<path class="st1" d="M806,109.2c-1.5,0-3.1-0.5-4.4-1.4c-14.4-10.5-29.5-20.2-45-28.9c-3.6-2-4.9-6.6-2.9-10.2
				c2-3.6,6.6-4.9,10.2-2.9c16,9,31.6,19,46.4,29.9c3.3,2.4,4.1,7.1,1.6,10.5C810.6,108.1,808.3,109.2,806,109.2z"/>
			<path class="st1" d="M392.8,41c-3.2,0-6.2-2.1-7.2-5.3c-1.2-4,1-8.2,4.9-9.4C436.1,12.2,483.5,5,531.6,5
				c37.6,0,75,4.4,111.2,13.1c4,1,6.5,5,5.5,9c-1,4-5,6.5-9,5.5C604.2,24.3,568,20,531.6,20c-46.6,0-92.5,6.9-136.5,20.6
				C394.3,40.9,393.6,41,392.8,41z"/>
			<path class="st1" d="M211.3,147.3c-2,0-4-0.8-5.5-2.4c-2.8-3-2.7-7.8,0.3-10.6c7.4-7,15.2-13.9,23-20.4c3.2-2.6,7.9-2.2,10.6,1
				c2.6,3.2,2.2,7.9-1,10.6c-7.6,6.3-15.1,12.9-22.3,19.7C215,146.6,213.2,147.3,211.3,147.3z"/>
			<path class="st1" d="M68.7,546c-3.7,0-7-2.8-7.4-6.6c-2.5-19.9-3.8-40.1-3.8-60.3c0-20.1,1.3-40.2,3.8-60
				c7.7-61.4,27.1-119.8,57.7-173.5c2-3.6,6.6-4.9,10.2-2.8c3.6,2,4.9,6.6,2.8,10.2c-29.5,52.1-48.3,108.6-55.8,168
				c-2.4,19.1-3.6,38.7-3.6,58.1c0,19.5,1.2,39.2,3.7,58.4c0.5,4.1-2.4,7.9-6.5,8.4C69.3,545.9,69,546,68.7,546z"/>
			<path class="st1" d="M298.5,891c-1.3,0-2.6-0.3-3.7-1c-18.2-10.5-35.9-22.3-52.5-35.2c-3.3-2.5-3.9-7.2-1.4-10.5
				c2.5-3.3,7.2-3.9,10.5-1.4c16.1,12.4,33.2,23.9,50.9,34.1c3.6,2.1,4.8,6.7,2.7,10.2C303.6,889.6,301.1,891,298.5,891z"/>
			<path class="st1" d="M531.6,953.2c-42.3,0-84.2-5.6-124.6-16.5c-4-1.1-6.4-5.2-5.3-9.2c1.1-4,5.2-6.4,9.2-5.3
				c39.1,10.6,79.7,16,120.7,16c33.1,0,66.2-3.5,98.2-10.5c4.1-0.9,8,1.7,8.9,5.7c0.9,4-1.7,8-5.7,8.9
				C599.9,949.6,565.8,953.2,531.6,953.2z"/>
			<path class="st1" d="M760.3,893.4c-2.6,0-5.2-1.4-6.5-3.8c-2-3.6-0.8-8.2,2.9-10.2c11.2-6.3,22.3-13.2,32.9-20.4
				c3.4-2.3,8.1-1.4,10.4,2c2.3,3.4,1.4,8.1-2,10.4c-11,7.5-22.4,14.6-34,21.1C762.8,893.1,761.6,893.4,760.3,893.4z"/>
			<path class="st1" d="M877.8,799.5c-1.8,0-3.6-0.6-5-1.9c-3.1-2.8-3.3-7.5-0.5-10.6c51.2-56.6,87.7-125.6,105.6-199.4
				c1-4,5-6.5,9.1-5.5c4,1,6.5,5,5.5,9.1c-18.5,76.2-56.2,147.4-109,205.9C881.9,798.6,879.8,799.5,877.8,799.5z"/>
			<path class="st1" d="M998.2,486.6c-4.1,0-7.5-3.4-7.5-7.5c0-13.8-0.6-27.8-1.8-41.4c-1-11.2-2.4-22.5-4.2-33.5
				c-0.7-4.1,2.1-7.9,6.2-8.6c4.1-0.7,7.9,2.1,8.6,6.2c1.9,11.4,3.3,23.1,4.4,34.6c1.3,14.1,1.9,28.5,1.9,42.8
				C1005.7,483.3,1002.3,486.6,998.2,486.6z"/>
		</g>
	</g>
	<g>
		<g>
			<g>
				<g>
					<path class="st1" d="M576.1,791.4H172.9c-21.5,0-39-17.5-39-39V376.7c0-21.5,17.5-39,39-39h554.8c23.9,0,43.3,19.4,43.3,43.3
						v135c0,4.1-3.4,7.5-7.5,7.5s-7.5-3.4-7.5-7.5v-135c0-15.6-12.7-28.3-28.3-28.3H172.9c-13.3,0-24,10.8-24,24v375.6
						c0,13.3,10.8,24,24,24h403.2c4.1,0,7.5,3.4,7.5,7.5S580.2,791.4,576.1,791.4z"/>
					<path class="st1" d="M340.7,516.2c-27,0-49-22-49-49c0-27,22-49,49-49c27,0,49,22,49,49C389.7,494.2,367.7,516.2,340.7,516.2z
						 M340.7,433.2c-18.7,0-34,15.3-34,34c0,18.7,15.3,34,34,34s34-15.3,34-34C374.7,448.5,359.5,433.2,340.7,433.2z"/>
					<path class="st1" d="M257.7,516.2c-27,0-49-22-49-49c0-27,22-49,49-49c27,0,49,22,49,49C306.7,494.2,284.7,516.2,257.7,516.2z
						 M257.7,433.2c-18.7,0-34,15.3-34,34c0,18.7,15.3,34,34,34c18.7,0,34-15.3,34-34C291.7,448.5,276.5,433.2,257.7,433.2z"/>
				</g>
			</g>
		</g>
		<g>
			<path class="st2" d="M834.1,551.9c-4.1,0-7.5-3.4-7.5-7.5V310.2c0-15.6-12.7-28.3-28.3-28.3H243.6c-13.3,0-24,10.8-24,24V322
				c0,4.1-3.4,7.5-7.5,7.5c-4.1,0-7.5-3.4-7.5-7.5V306c0-21.5,17.5-39,39-39h554.8c23.9,0,43.3,19.4,43.3,43.3v234.2
				C841.6,548.5,838.2,551.9,834.1,551.9z"/>
		</g>
		<g>
			<g>
				<g>
					<path class="st1" d="M900.5,627.8c-4.1,0-7.5-3.4-7.5-7.5V236.9c0-15.6-12.7-28.3-28.3-28.3H310c-13.3,0-24,10.8-24,24v13.4
						c0,4.1-3.4,7.5-7.5,7.5c-4.1,0-7.5-3.4-7.5-7.5v-13.4c0-21.5,17.5-39,39-39h554.8c23.9,0,43.3,19.4,43.3,43.3v383.4
						C908,624.4,904.6,627.8,900.5,627.8z"/>
				</g>
			</g>
		</g>
		<g>
			<path class="st1" d="M332.5,640.7H212.6c-4.1,0-7.5-3.4-7.5-7.5s3.4-7.5,7.5-7.5h119.9c4.1,0,7.5,3.4,7.5,7.5
				S336.6,640.7,332.5,640.7z"/>
			<path class="st1" d="M332.5,711.4H212.6c-4.1,0-7.5-3.4-7.5-7.5c0-4.1,3.4-7.5,7.5-7.5h119.9c4.1,0,7.5,3.4,7.5,7.5
				C340,708.1,336.6,711.4,332.5,711.4z"/>
			<path class="st1" d="M511.8,640.7H397.1c-4.1,0-7.5-3.4-7.5-7.5s3.4-7.5,7.5-7.5h114.7c4.1,0,7.5,3.4,7.5,7.5
				S516,640.7,511.8,640.7z"/>
			<path class="st1" d="M511.8,711.4H397.1c-4.1,0-7.5-3.4-7.5-7.5c0-4.1,3.4-7.5,7.5-7.5h114.7c4.1,0,7.5,3.4,7.5,7.5
				C519.3,708.1,516,711.4,511.8,711.4z"/>
		</g>
		<g>
			<path class="st1" d="M729.5,833.4c-78.8,0-142.9-64.1-142.9-142.9s64.1-142.9,142.9-142.9s142.9,64.1,142.9,142.9
				S808.3,833.4,729.5,833.4z M729.5,562.7c-70.5,0-127.9,57.4-127.9,127.9S659,818.4,729.5,818.4s127.9-57.4,127.9-127.9
				S800,562.7,729.5,562.7z"/>
			<g>
				<path class="st1" d="M729.5,773.1c-4.1,0-7.5-3.4-7.5-7.5v-150c0-4.1,3.4-7.5,7.5-7.5c4.1,0,7.5,3.4,7.5,7.5v150
					C737,769.7,733.7,773.1,729.5,773.1z"/>
				<path class="st1" d="M804.5,698.1h-150c-4.1,0-7.5-3.4-7.5-7.5c0-4.1,3.4-7.5,7.5-7.5h150c4.1,0,7.5,3.4,7.5,7.5
					C812,694.7,808.7,698.1,804.5,698.1z"/>
			</g>
		</g>
	</g>
</g>
</svg>
