<?xml version="1.0" encoding="utf-8"?>
<!-- Generator: Adobe Illustrator 23.0.6, SVG Export Plug-In . SVG Version: 6.00 Build 0)  -->
<svg version="1.1" id="Layer_1" xmlns="http://www.w3.org/2000/svg" xmlns:xlink="http://www.w3.org/1999/xlink" x="0px" y="0px"
	 viewBox="0 0 1028.5 1106.7" style="enable-background:new 0 0 1028.5 1106.7;" xml:space="preserve">
<style type="text/css">
	.st0{fill:#1006A1;stroke:#1006A1;stroke-width:11;stroke-miterlimit:10;}
	.st1{opacity:0.3;fill:#1006A1;stroke:#1006A1;stroke-width:11;stroke-miterlimit:10;}
	.st2{opacity:0.3;}
</style>
<g>
	<g>
		<g>
			<path class="st0" d="M779.9,449c-1.1,0-2.2-0.2-3.2-0.7c-3.7-1.8-5.3-6.3-3.5-10l49.7-103.2c6.7-13.9,0.8-30.5-13-37.2
				l-182.2-87.6c-6.7-3.2-14.3-3.6-21.3-1.2c-7,2.5-12.7,7.5-15.9,14.2l-82,168.1c-1.8,3.7-6.3,5.3-10,3.5c-3.7-1.8-5.3-6.3-3.5-10
				l82-168.1c4.9-10.3,13.6-18.1,24.4-21.8c10.8-3.8,22.4-3.1,32.8,1.8l182.2,87.6c21.3,10.2,30.3,35.9,20.1,57.2l-49.7,103.2
				C785.4,447.5,782.7,449,779.9,449z"/>
			<path class="st0" d="M591.9,791.1c-6.2,0-12.5-1.4-18.5-4.2l-91.4-44c-3.7-1.8-5.3-6.3-3.5-10c1.8-3.7,6.3-5.3,10-3.5l91.4,44
				c13.9,6.7,30.6,0.8,37.2-13l43.4-89.9c1.8-3.7,6.3-5.3,10-3.5c3.7,1.8,5.3,6.3,3.5,10l-43.4,89.8
				C623.3,782.2,607.9,791.1,591.9,791.1z"/>
			<path class="st0" d="M639.2,732.1c-1.1,0-2.2-0.2-3.2-0.7l-133.4-64.2c-3.7-1.8-5.3-6.3-3.5-10c1.8-3.7,6.3-5.3,10-3.5
				l133.4,64.2c3.7,1.8,5.3,6.3,3.5,10C644.7,730.6,642,732.1,639.2,732.1z"/>
			<path class="st0" d="M823.3,352c-1.1,0-2.2-0.2-3.2-0.7L583.9,237.7c-3.7-1.8-5.3-6.3-3.5-10c1.8-3.7,6.3-5.3,10-3.5l236.1,113.6
				c3.7,1.8,5.3,6.3,3.5,10C828.7,350.4,826.1,352,823.3,352z"/>
			<path class="st0" d="M525.8,716.4c-1.1,0-2.2-0.2-3.2-0.7l-25.2-12.1c-3.7-1.8-5.3-6.3-3.5-10c1.8-3.7,6.3-5.3,10-3.5l25.2,12.1
				c3.7,1.8,5.3,6.3,3.5,10C531.3,714.9,528.6,716.4,525.8,716.4z"/>
			<path class="st0" d="M232.1,866.3c-1.1,0-2.2-0.2-3.2-0.7c-3.7-1.8-5.3-6.3-3.5-10l71.3-148.3l28.6-159.5
				c0.7-27.7,14.5-53.6,37.2-69.5l151.5-105.1c9.7-6.8,21.4-9.3,33.1-7c11.6,2.2,21.6,8.9,28.1,18.8c12.6,19.2,8,44.9-10.3,58.6
				l-109.4,81.7c9.8,11,29.3,35.6,42.1,69.2c10.2,26.9,14,54,11.2,80.5c-3.5,33.1-17.2,65.3-40.9,95.6c-2.5,3.3-7.3,3.8-10.5,1.3
				c-3.3-2.5-3.8-7.3-1.3-10.5c21.9-28.1,34.6-57.6,37.8-87.9c2.5-24.2-0.9-48.9-10.3-73.6c-16.1-42.4-44.2-69.8-44.5-70.1
				c-1.6-1.5-2.4-3.7-2.3-5.9c0.1-2.2,1.2-4.2,3-5.5l116.1-86.7c12-9,15-25.8,6.8-38.4c-4.3-6.5-10.8-10.9-18.4-12.3
				c-7.6-1.5-15.3,0.2-21.7,4.6l-151.5,105c-18.9,13.2-30.4,35-30.8,58.1c0,0.4,0,0.8-0.1,1.2L311.3,711c-0.1,0.7-0.3,1.3-0.6,1.9
				l-71.8,149.2C237.6,864.8,234.9,866.3,232.1,866.3z"/>
			<path class="st0" d="M740,531.7c-6.9,0-13.6-1.8-19.8-5.2c-9.4-5.3-16.1-13.9-19-24.3l0,0c-6-21.4,6.6-43.7,28.1-49.6l66.3-18.4
				c10.4-2.9,21.3-1.6,30.6,3.7c9.4,5.3,16.1,13.9,19,24.3c6,21.4-6.6,43.7-28.1,49.6l-66.3,18.4C747.3,531.2,743.6,531.7,740,531.7
				z M715.7,498.2c1.8,6.5,6.1,11.9,11.9,15.3c5.9,3.3,12.7,4.2,19.2,2.4l66.3-18.4c13.5-3.7,21.4-17.7,17.6-31.2
				c-1.8-6.5-6.1-11.9-11.9-15.3c-5.9-3.3-12.7-4.2-19.2-2.4L733.3,467C719.8,470.7,711.9,484.7,715.7,498.2L715.7,498.2z"/>
			<path class="st0" d="M725.4,604.9c-17.7,0-33.9-11.7-38.9-29.5c-6-21.4,6.6-43.7,28.1-49.6l66.3-18.4c21.4-6,43.7,6.6,49.6,28.1
				c6,21.4-6.6,43.7-28.1,49.6l-66.3,18.4C732.5,604.4,728.9,604.9,725.4,604.9z M791.6,520.8c-2.2,0-4.5,0.3-6.8,0.9l-66.3,18.4
				c-13.5,3.7-21.4,17.7-17.6,31.2c3.7,13.5,17.7,21.4,31.2,17.6l66.3-18.4c13.5-3.7,21.4-17.7,17.6-31.2
				C812.9,528.2,802.7,520.8,791.6,520.8z"/>
			<path class="st0" d="M687.3,684c-6.9,0-13.6-1.8-19.8-5.2c-9.4-5.3-16.1-13.9-19-24.3c-2.9-10.4-1.6-21.3,3.7-30.6
				c5.3-9.4,13.9-16.1,24.3-19l66.3-18.4c10.4-2.9,21.3-1.6,30.6,3.7c9.4,5.3,16.1,13.9,19,24.3c6,21.4-6.6,43.7-28.1,49.6
				l-66.3,18.4C694.5,683.5,690.9,684,687.3,684z M753.7,599.9c-2.3,0-4.6,0.3-6.8,0.9l-66.3,18.4c-6.5,1.8-11.9,6.1-15.3,11.9
				c-3.3,5.9-4.2,12.7-2.4,19.2c0,0,0,0,0,0c1.8,6.5,6.1,11.9,11.9,15.3c5.9,3.3,12.7,4.2,19.2,2.4l66.3-18.4
				c13.5-3.7,21.4-17.7,17.6-31.2c-1.8-6.5-6.1-11.9-11.9-15.3C762.2,601,758,599.9,753.7,599.9z"/>
			<path class="st0" d="M399.5,978c-1.1,0-2.2-0.2-3.2-0.7c-3.7-1.8-5.3-6.3-3.5-10L460,827.5c1.3-2.7,4-4.3,6.9-4.2
				c1.1,0,2.3,0,3.4,0c68.4,0,99.7-47,100-47.5c2.3-3.5,6.9-4.5,10.4-2.2c3.5,2.3,4.5,6.9,2.2,10.4c-0.4,0.6-9.5,14.5-28.4,28.1
				c-16.7,12-44.4,26-83,26.3l-65.2,135.5C405,976.4,402.3,978,399.5,978z"/>
		</g>
		<path class="st1" d="M88.3,726.1c-3.4,0-6.5-2.3-7.3-5.8c-8.1-34.5-12.2-70.1-12.2-105.9c0-19.5,1.2-39.1,3.7-58.4
			c0.5-4.1,4.3-7,8.4-6.5c4.1,0.5,7,4.3,6.5,8.4c-2.3,18.6-3.5,37.6-3.5,56.5c0,34.6,4,69.1,11.8,102.5c0.9,4-1.6,8.1-5.6,9
			C89.4,726.1,88.8,726.1,88.3,726.1z"/>
		<path class="st1" d="M529.8,1075.4c-73.1,0-143-16.6-207.8-49.4c-61.8-31.2-116.7-76.9-158.8-132c-2.5-3.3-1.9-8,1.4-10.5
			c3.3-2.5,8-1.9,10.5,1.4c40.8,53.4,93.9,97.6,153.7,127.8c62.7,31.7,130.3,47.7,201,47.7c27,0,54.1-2.4,80.5-7.2
			c4.1-0.7,8,2,8.7,6c0.7,4.1-2,8-6,8.7C585.7,1072.9,557.7,1075.4,529.8,1075.4z"/>
		<path class="st1" d="M964.1,754.4c-0.7,0-1.3-0.1-2-0.3c-4-1.1-6.3-5.2-5.2-9.2c3.7-13.5,6.8-27.4,9.2-41.2
			c0.7-4.1,4.6-6.8,8.7-6.1c4.1,0.7,6.8,4.6,6.1,8.7c-2.5,14.3-5.7,28.6-9.6,42.6C970.4,752.2,967.4,754.4,964.1,754.4z"/>
		<path class="st1" d="M973.4,527.1c-3.5,0-6.6-2.4-7.3-5.9c-13-61.3-38.4-118.2-75.5-169c-2.4-3.3-1.7-8,1.6-10.5
			c3.3-2.4,8-1.7,10.5,1.6c38.3,52.6,64.6,111.4,78,174.7c0.9,4.1-1.7,8-5.8,8.9C974.4,527,973.9,527.1,973.4,527.1z"/>
		<g>
			<g class="st2">
				<path class="st0" d="M101.5,810h-16c-4.1,0-7.5-3.4-7.5-7.5s3.4-7.5,7.5-7.5h16c4.1,0,7.5,3.4,7.5,7.5S105.6,810,101.5,810z"/>
				<path class="st0" d="M163.5,810h-18c-4.1,0-7.5-3.4-7.5-7.5s3.4-7.5,7.5-7.5h18c4.1,0,7.5,3.4,7.5,7.5S167.6,810,163.5,810z"/>
			</g>
			<g>
				<path class="st1" d="M124,849.5c-4.1,0-7.5-3.4-7.5-7.5v-16c0-4.1,3.4-7.5,7.5-7.5c4.1,0,7.5,3.4,7.5,7.5v16
					C131.5,846.1,128.1,849.5,124,849.5z"/>
				<path class="st1" d="M124,789.5c-4.1,0-7.5-3.4-7.5-7.5v-18c0-4.1,3.4-7.5,7.5-7.5c4.1,0,7.5,3.4,7.5,7.5v18
					C131.5,786.1,128.1,789.5,124,789.5z"/>
			</g>
		</g>
		<g class="st2">
			<g>
				<path class="st0" d="M953.5,617h-16c-4.1,0-7.5-3.4-7.5-7.5s3.4-7.5,7.5-7.5h16c4.1,0,7.5,3.4,7.5,7.5S957.6,617,953.5,617z"/>
				<path class="st0" d="M1015.5,617h-18c-4.1,0-7.5-3.4-7.5-7.5s3.4-7.5,7.5-7.5h18c4.1,0,7.5,3.4,7.5,7.5S1019.6,617,1015.5,617z"
					/>
			</g>
			<g>
				<path class="st0" d="M976,656.5c-4.1,0-7.5-3.4-7.5-7.5v-16c0-4.1,3.4-7.5,7.5-7.5s7.5,3.4,7.5,7.5v16
					C983.5,653.1,980.1,656.5,976,656.5z"/>
				<path class="st0" d="M976,596.5c-4.1,0-7.5-3.4-7.5-7.5v-18c0-4.1,3.4-7.5,7.5-7.5s7.5,3.4,7.5,7.5v18
					C983.5,593.1,980.1,596.5,976,596.5z"/>
			</g>
		</g>
		<g class="st2">
			<g>
				<path class="st0" d="M406.5,59h-16c-4.1,0-7.5-3.4-7.5-7.5s3.4-7.5,7.5-7.5h16c4.1,0,7.5,3.4,7.5,7.5S410.6,59,406.5,59z"/>
				<path class="st0" d="M468.5,59h-18c-4.1,0-7.5-3.4-7.5-7.5s3.4-7.5,7.5-7.5h18c4.1,0,7.5,3.4,7.5,7.5S472.6,59,468.5,59z"/>
			</g>
			<g>
				<path class="st0" d="M429,98.5c-4.1,0-7.5-3.4-7.5-7.5V75c0-4.1,3.4-7.5,7.5-7.5s7.5,3.4,7.5,7.5v16
					C436.5,95.1,433.1,98.5,429,98.5z"/>
				<path class="st0" d="M429,38.5c-4.1,0-7.5-3.4-7.5-7.5V13c0-4.1,3.4-7.5,7.5-7.5s7.5,3.4,7.5,7.5v18
					C436.5,35.1,433.1,38.5,429,38.5z"/>
			</g>
		</g>
		<g class="st2">
			<g>
				<path class="st0" d="M930.5,867h-16c-4.1,0-7.5-3.4-7.5-7.5s3.4-7.5,7.5-7.5h16c4.1,0,7.5,3.4,7.5,7.5S934.6,867,930.5,867z"/>
				<path class="st0" d="M992.5,867h-18c-4.1,0-7.5-3.4-7.5-7.5s3.4-7.5,7.5-7.5h18c4.1,0,7.5,3.4,7.5,7.5S996.6,867,992.5,867z"/>
			</g>
			<g>
				<path class="st0" d="M953,906.5c-4.1,0-7.5-3.4-7.5-7.5v-16c0-4.1,3.4-7.5,7.5-7.5s7.5,3.4,7.5,7.5v16
					C960.5,903.1,957.1,906.5,953,906.5z"/>
				<path class="st0" d="M953,846.5c-4.1,0-7.5-3.4-7.5-7.5v-18c0-4.1,3.4-7.5,7.5-7.5s7.5,3.4,7.5,7.5v18
					C960.5,843.1,957.1,846.5,953,846.5z"/>
			</g>
		</g>
		<path class="st1" d="M194.5,667.3c-13.4,0-24.3-10.9-24.3-24.3s10.9-24.3,24.3-24.3c13.4,0,24.3,10.9,24.3,24.3
			S207.9,667.3,194.5,667.3z M194.5,633.7c-5.1,0-9.3,4.2-9.3,9.3s4.2,9.3,9.3,9.3c5.1,0,9.3-4.2,9.3-9.3S199.6,633.7,194.5,633.7z"
			/>
		<path class="st1" d="M510.8,180.8c-13.4,0-24.3-10.9-24.3-24.3c0-13.4,10.9-24.3,24.3-24.3c13.4,0,24.3,10.9,24.3,24.3
			C535.1,169.9,524.2,180.8,510.8,180.8z M510.8,147.2c-5.1,0-9.3,4.2-9.3,9.3c0,5.1,4.2,9.3,9.3,9.3c5.1,0,9.3-4.2,9.3-9.3
			C520.1,151.4,515.9,147.2,510.8,147.2z"/>
		<path class="st1" d="M856.8,810.8c-13.4,0-24.3-10.9-24.3-24.3s10.9-24.3,24.3-24.3c13.4,0,24.3,10.9,24.3,24.3
			S870.2,810.8,856.8,810.8z M856.8,777.2c-5.1,0-9.3,4.2-9.3,9.3c0,5.1,4.2,9.3,9.3,9.3c5.1,0,9.3-4.2,9.3-9.3
			C866.1,781.4,861.9,777.2,856.8,777.2z"/>
	</g>
	<path class="st0" d="M762.5,1101.2c-66.6,0-120.8-54.2-120.8-120.8s54.2-120.8,120.8-120.8s120.8,54.2,120.8,120.8
		S829.1,1101.2,762.5,1101.2z M762.5,874.5c-58.4,0-105.8,47.5-105.8,105.8c0,58.4,47.5,105.8,105.8,105.8
		c58.4,0,105.8-47.5,105.8-105.8C868.3,922,820.8,874.5,762.5,874.5z"/>
	<g>
		<path class="st0" d="M762.5,1032.8h-1c-19.8,0-35.9-13.6-35.9-30.4c0-4.1,3.4-7.5,7.5-7.5s7.5,3.4,7.5,7.5
			c0,8.3,9.6,15.4,20.9,15.4h1c11.3,0,20.9-7,20.9-15.4c0-8.3-9.6-15.4-20.9-15.4c-19.8,0-35.9-13.6-35.9-30.4v-0.2
			c0-16.7,16.1-30.4,35.9-30.4h1c19.8,0,35.9,13.6,35.9,30.4c0,4.1-3.4,7.5-7.5,7.5c-4.1,0-7.5-3.4-7.5-7.5
			c0-8.3-9.6-15.4-20.9-15.4h-1c-11.3,0-20.9,7-20.9,15.4v0.2c0,8.3,9.6,15.4,20.9,15.4c19.8,0,35.9,13.6,35.9,30.4
			C798.3,1019.2,782.2,1032.8,762.5,1032.8z"/>
		<path class="st0" d="M762.8,939c-4.1,0-7.5-3.4-7.5-7.5v-24.8c0-4.1,3.4-7.5,7.5-7.5s7.5,3.4,7.5,7.5v24.8
			C770.3,935.7,767,939,762.8,939z"/>
		<path class="st0" d="M762.8,1061.1c-4.1,0-7.5-3.4-7.5-7.5v-24.8c0-4.1,3.4-7.5,7.5-7.5s7.5,3.4,7.5,7.5v24.8
			C770.3,1057.8,767,1061.1,762.8,1061.1z"/>
	</g>
	<path class="st0" d="M399.6,336.7c-0.5,0-1.1-0.1-1.6-0.2c-4-0.9-6.6-4.9-5.7-8.9l25.9-117.4L145.8,150l-27.5,128.1
		c-0.9,4.1-4.9,6.6-8.9,5.8c-4.1-0.9-6.6-4.9-5.8-8.9l29-135.5c0.4-2,1.6-3.7,3.3-4.7c1.7-1.1,3.7-1.4,5.7-1l287.1,63.4
		c1.9,0.4,3.6,1.6,4.7,3.3c1.1,1.7,1.4,3.7,1,5.7l-27.6,124.7C406.1,334.3,403,336.7,399.6,336.7z"/>
	<path class="st0" d="M266.8,272.8c-1.7,0-3.5-0.2-5.2-0.6c-6.3-1.4-11.6-5.1-15.1-10.6c-3.5-5.4-4.6-11.9-3.2-18.1
		c1.4-6.3,5.1-11.6,10.6-15.1c5.4-3.5,11.9-4.6,18.1-3.2c6.3,1.4,11.6,5.1,15.1,10.6c3.5,5.4,4.6,11.9,3.2,18.1
		C287.8,265.1,277.8,272.8,266.8,272.8z M266.8,239.6c-1.7,0-3.4,0.5-4.9,1.4c-2,1.3-3.5,3.3-4,5.7c-0.5,2.4-0.1,4.8,1.2,6.8
		c1.3,2,3.3,3.5,5.7,4c4.9,1.1,9.7-2,10.8-6.9c0.5-2.4,0.1-4.8-1.2-6.8c-1.3-2-3.3-3.5-5.7-4C268.1,239.7,267.4,239.6,266.8,239.6z"
		/>
	<g>
		<path class="st0" d="M105.4,383.1c-0.1,0-0.1,0-0.2,0c-6.9,0-13.4-2.8-18.2-7.7c-4.8-4.9-7.5-11.4-7.4-18.3
			c0-6.9,2.8-13.4,7.7-18.2c4.9-4.8,11.3-7.4,18.1-7.4c0.1,0,0.1,0,0.2,0c6.9,0,13.4,2.8,18.2,7.7c4.8,4.9,7.5,11.4,7.4,18.3
			c0,6.9-2.8,13.4-7.7,18.2C118.6,380.4,112.2,383.1,105.4,383.1z M105.4,346.5c-2.9,0-5.5,1.1-7.6,3.1c-2.1,2-3.2,4.7-3.2,7.6
			c0,0,0,0,0,0c0,2.9,1.1,5.6,3.1,7.7c2,2.1,4.7,3.2,7.6,3.2c2.9,0.1,5.6-1.1,7.7-3.1c2.1-2,3.2-4.7,3.2-7.6c0-2.9-1.1-5.6-3.1-7.7
			C111,347.6,108.3,346.5,105.4,346.5C105.4,346.5,105.4,346.5,105.4,346.5z M87.1,357.2L87.1,357.2L87.1,357.2z"/>
		<path class="st0" d="M68.8,382.8c-0.1,0-0.1,0-0.2,0c-14.2-0.1-25.7-11.7-25.6-26c0,0,0,0,0,0c0.1-14.2,11.6-25.6,25.8-25.6
			c0.1,0,0.1,0,0.2,0c6.9,0,13.4,2.8,18.2,7.7c4.8,4.9,7.5,11.4,7.4,18.3C94.5,371.4,82.9,382.8,68.8,382.8z M58,357
			c0,6,4.8,10.8,10.7,10.9c0,0,0,0,0.1,0c5.9,0,10.8-4.8,10.8-10.7c0-2.9-1.1-5.6-3.1-7.7c-2-2.1-4.7-3.2-7.6-3.2c0,0,0,0-0.1,0
			C62.9,346.3,58,351.1,58,357L58,357z"/>
		<path class="st0" d="M148.6,438.6C148.6,438.6,148.6,438.6,148.6,438.6L50.2,438c-4.1,0-7.5-3.4-7.5-7.5c0-4.1,3.4-7.5,7.5-7.5
			c0,0,0,0,0,0l98.3,0.6c4.1,0,7.5,3.4,7.5,7.5C156.1,435.3,152.7,438.6,148.6,438.6z"/>
		<path class="st0" d="M148.4,469.7C148.4,469.7,148.4,469.7,148.4,469.7L50,469.1c-4.1,0-7.5-3.4-7.5-7.5c0-4.1,3.4-7.5,7.5-7.5
			l98.3,0.6c4.1,0,7.5,3.4,7.5,7.5C155.9,466.4,152.5,469.7,148.4,469.7z"/>
		<path class="st0" d="M245.5,470.2C245.5,470.2,245.5,470.2,245.5,470.2l-66.8-0.4c-4.1,0-7.5-3.4-7.5-7.5c0-4.1,3.4-7.5,7.5-7.5
			c0,0,0,0,0,0l66.8,0.4c4.1,0,7.5,3.4,7.5,7.5C253,466.9,249.6,470.2,245.5,470.2z"/>
		<path class="st0" d="M273.5,508h-241c-14.9,0-27-12.1-27-27V321c0-14.9,12.1-27,27-27h241c14.9,0,27,12.1,27,27v160
			C300.5,495.9,288.4,508,273.5,508z M32.5,309c-6.6,0-12,5.4-12,12v160c0,6.6,5.4,12,12,12h241c6.6,0,12-5.4,12-12V321
			c0-6.6-5.4-12-12-12H32.5z"/>
	</g>
</g>
</svg>
