<?xml version="1.0" encoding="utf-8"?>
<!-- Generator: Adobe Illustrator 23.0.6, SVG Export Plug-In . SVG Version: 6.00 Build 0)  -->
<svg version="1.1" id="Layer_1" xmlns="http://www.w3.org/2000/svg" xmlns:xlink="http://www.w3.org/1999/xlink" x="0px" y="0px"
	 viewBox="0 0 956.3 947.9" style="enable-background:new 0 0 956.3 947.9;" xml:space="preserve">
<style type="text/css">
	.st0{opacity:0.3;fill:#1006A1;stroke:#1006A1;stroke-width:3;stroke-miterlimit:10;}
	.st1{opacity:0.3;fill:#1006A1;stroke:#1006A1;stroke-miterlimit:10;}
	.st2{opacity:0.3;}
	.st3{fill:#1006A1;stroke:#1006A1;stroke-width:3;stroke-miterlimit:10;}
	.st4{fill:#1006A1;stroke:#1006A1;stroke-miterlimit:10;}
</style>
<g>
	<path class="st0" d="M21,597.1c-3.4,0-6.5-2.3-7.3-5.8C5.6,556.8,1.5,521.2,1.5,485.4c0-19.5,1.2-39.1,3.7-58.4
		c0.5-4.1,4.3-7,8.4-6.5c4.1,0.5,7,4.3,6.5,8.4c-2.3,18.6-3.5,37.6-3.5,56.5c0,34.6,4,69.1,11.8,102.5c0.9,4-1.6,8.1-5.6,9
		C22.2,597.1,21.6,597.1,21,597.1z"/>
	<path class="st0" d="M462.5,946.4c-73.1,0-143-16.6-207.8-49.4C193,865.9,138.1,820.2,95.9,765c-2.5-3.3-1.9-8,1.4-10.5
		c3.3-2.5,8-1.9,10.5,1.4c40.8,53.4,93.9,97.6,153.7,127.8c62.7,31.7,130.3,47.7,201,47.7c27,0,54.1-2.4,80.5-7.2c4.1-0.7,8,2,8.7,6
		c0.7,4.1-2,8-6,8.7C518.5,943.9,490.5,946.4,462.5,946.4z"/>
	<path class="st0" d="M514.7,20.9c-68.8-9.2-139.9-2.7-205.7,18.9C284.3,48,260.6,58,238,70c-0.1,0.1-0.2,0.2-0.2,0.3
		c-0.2,0.3-0.4,0.6-0.6,0.9c-0.2,0.3-0.3,0.6-0.3,0.7c-0.5,1.5-0.7,2.5-0.6,4.1c0,1.2,0.3,2.3,0.7,3.6c0.1,0.4,0.4,0.9,0.7,1.5
		c0.1,0.1,0.3,0.5,0.3,0.5c0.1,0.2,0.3,0.3,0.4,0.5c0.2,0.2,0.4,0.4,0.6,0.5c0,0,0,0,0,0c0.1,0.1,0.2,0.1,0.3,0.2
		c0.4,0.3,0.9,0.5,1.3,0.7c0.1,0.1,0.3,0.1,0.4,0.2c0.1,0,0.1,0.1,0.2,0.1c0.3,0.1,0.6,0.2,0.9,0.3c0.3,0.1,0.6,0.2,0.9,0.3
		c22.5-12,46.1-22.1,70.7-30.2c63.6-20.9,132.4-27.2,199-18.3c4.1,0.5,7.9-2.3,8.4-6.4C521.7,25.3,518.8,21.5,514.7,20.9z"/>
	<path class="st1" d="M896.9,625.4c-0.7,0-1.3-0.1-2-0.3c-4-1.1-6.3-5.2-5.2-9.2c3.7-13.5,6.8-27.4,9.2-41.2
		c0.7-4.1,4.6-6.8,8.7-6.1c4.1,0.7,6.8,4.6,6.1,8.7c-2.5,14.3-5.7,28.6-9.6,42.6C903.2,623.2,900.2,625.4,896.9,625.4z"/>
	<path class="st1" d="M906.1,398.1c-3.5,0-6.6-2.4-7.3-5.9c-13-61.3-38.4-118.2-75.5-169c-2.4-3.3-1.7-8,1.6-10.5
		c3.3-2.4,8-1.7,10.5,1.6c38.3,52.6,64.6,111.4,78,174.7c0.9,4.1-1.7,8-5.8,8.9C907.2,398,906.6,398.1,906.1,398.1z"/>
	<g>
		<g class="st2">
			<path class="st3" d="M34.3,681h-16c-4.1,0-7.5-3.4-7.5-7.5s3.4-7.5,7.5-7.5h16c4.1,0,7.5,3.4,7.5,7.5S38.4,681,34.3,681z"/>
			<path class="st3" d="M96.3,681h-18c-4.1,0-7.5-3.4-7.5-7.5s3.4-7.5,7.5-7.5h18c4.1,0,7.5,3.4,7.5,7.5S100.4,681,96.3,681z"/>
		</g>
		<g>
			<path class="st0" d="M56.8,720.5c-4.1,0-7.5-3.4-7.5-7.5v-16c0-4.1,3.4-7.5,7.5-7.5s7.5,3.4,7.5,7.5v16
				C64.3,717.1,60.9,720.5,56.8,720.5z"/>
			<path class="st0" d="M56.8,660.5c-4.1,0-7.5-3.4-7.5-7.5v-18c0-4.1,3.4-7.5,7.5-7.5s7.5,3.4,7.5,7.5v18
				C64.3,657.1,60.9,660.5,56.8,660.5z"/>
		</g>
	</g>
	<g class="st2">
		<g>
			<path class="st4" d="M886.3,488h-16c-4.1,0-7.5-3.4-7.5-7.5s3.4-7.5,7.5-7.5h16c4.1,0,7.5,3.4,7.5,7.5S890.4,488,886.3,488z"/>
			<path class="st4" d="M948.3,488h-18c-4.1,0-7.5-3.4-7.5-7.5s3.4-7.5,7.5-7.5h18c4.1,0,7.5,3.4,7.5,7.5S952.4,488,948.3,488z"/>
		</g>
		<g>
			<path class="st4" d="M908.8,527.5c-4.1,0-7.5-3.4-7.5-7.5v-16c0-4.1,3.4-7.5,7.5-7.5s7.5,3.4,7.5,7.5v16
				C916.3,524.1,912.9,527.5,908.8,527.5z"/>
			<path class="st4" d="M908.8,467.5c-4.1,0-7.5-3.4-7.5-7.5v-18c0-4.1,3.4-7.5,7.5-7.5s7.5,3.4,7.5,7.5v18
				C916.3,464.1,912.9,467.5,908.8,467.5z"/>
		</g>
	</g>
	<g class="st2">
		<g>
			<path class="st3" d="M661.3,55h-16c-4.1,0-7.5-3.4-7.5-7.5s3.4-7.5,7.5-7.5h16c4.1,0,7.5,3.4,7.5,7.5S665.4,55,661.3,55z"/>
			<path class="st3" d="M723.3,55h-18c-4.1,0-7.5-3.4-7.5-7.5s3.4-7.5,7.5-7.5h18c4.1,0,7.5,3.4,7.5,7.5S727.4,55,723.3,55z"/>
		</g>
		<g>
			<path class="st3" d="M683.8,94.5c-4.1,0-7.5-3.4-7.5-7.5V71c0-4.1,3.4-7.5,7.5-7.5s7.5,3.4,7.5,7.5v16
				C691.3,91.1,687.9,94.5,683.8,94.5z"/>
			<path class="st3" d="M683.8,34.5c-4.1,0-7.5-3.4-7.5-7.5V9c0-4.1,3.4-7.5,7.5-7.5s7.5,3.4,7.5,7.5v18
				C691.3,31.1,687.9,34.5,683.8,34.5z"/>
		</g>
	</g>
	<g class="st2">
		<g>
			<path class="st4" d="M863.3,738h-16c-4.1,0-7.5-3.4-7.5-7.5s3.4-7.5,7.5-7.5h16c4.1,0,7.5,3.4,7.5,7.5S867.4,738,863.3,738z"/>
			<path class="st4" d="M925.3,738h-18c-4.1,0-7.5-3.4-7.5-7.5s3.4-7.5,7.5-7.5h18c4.1,0,7.5,3.4,7.5,7.5S929.4,738,925.3,738z"/>
		</g>
		<g>
			<path class="st4" d="M885.8,777.5c-4.1,0-7.5-3.4-7.5-7.5v-16c0-4.1,3.4-7.5,7.5-7.5s7.5,3.4,7.5,7.5v16
				C893.3,774.1,889.9,777.5,885.8,777.5z"/>
			<path class="st4" d="M885.8,717.5c-4.1,0-7.5-3.4-7.5-7.5v-18c0-4.1,3.4-7.5,7.5-7.5s7.5,3.4,7.5,7.5v18
				C893.3,714.1,889.9,717.5,885.8,717.5z"/>
		</g>
	</g>
	<path class="st0" d="M127.3,538.3c-13.4,0-24.3-10.9-24.3-24.3s10.9-24.3,24.3-24.3c13.4,0,24.3,10.9,24.3,24.3
		S140.7,538.3,127.3,538.3z M127.3,504.7c-5.1,0-9.3,4.2-9.3,9.3s4.2,9.3,9.3,9.3c5.1,0,9.3-4.2,9.3-9.3S132.4,504.7,127.3,504.7z"
		/>
	<path class="st0" d="M765.5,176.8c-13.4,0-24.3-10.9-24.3-24.3c0-13.4,10.9-24.3,24.3-24.3c13.4,0,24.3,10.9,24.3,24.3
		C789.8,165.9,778.9,176.8,765.5,176.8z M765.5,143.2c-5.1,0-9.3,4.2-9.3,9.3c0,5.1,4.2,9.3,9.3,9.3c5.1,0,9.3-4.2,9.3-9.3
		C774.8,147.4,770.7,143.2,765.5,143.2z"/>
	<path class="st0" d="M789.5,681.8c-13.4,0-24.3-10.9-24.3-24.3s10.9-24.3,24.3-24.3c13.4,0,24.3,10.9,24.3,24.3
		S802.9,681.8,789.5,681.8z M789.5,648.2c-5.1,0-9.3,4.2-9.3,9.3c0,5.1,4.2,9.3,9.3,9.3c5.1,0,9.3-4.2,9.3-9.3
		C798.8,652.4,794.7,648.2,789.5,648.2z"/>
	<g>
		<g>
			<path class="st3" d="M185.4,204.4H65.3c-6.9,0-12.5-5.6-12.5-12.5v-20.1c0-39.1,31.8-70.9,70.9-70.9c6.9,0,12.5,5.6,12.5,12.5
				c0,6.9-5.6,12.5-12.5,12.5c-25.4,0-46,20.6-46,46v7.7h107.7c6.9,0,12.5,5.6,12.5,12.5C197.8,198.8,192.3,204.4,185.4,204.4z"/>
			<path class="st3" d="M426.1,836H248c-6.9,0-12.5-5.6-12.5-12.5s5.6-12.5,12.5-12.5h178c6.9,0,12.5,5.6,12.5,12.5
				S433,836,426.1,836z"/>
			<path class="st3" d="M185.3,413.6C185.3,413.6,185.3,413.6,185.3,413.6c-6.9,0-12.5-5.6-12.5-12.5l0.1-228.7
				c0-25.7-20.9-46.6-46.6-46.6c-6.9,0-12.5-5.6-12.5-12.5c0-6.9,5.6-12.5,12.5-12.5h376c43,0,77.9,35,77.9,77.9V318
				c0,6.9-5.6,12.5-12.5,12.5c-6.9,0-12.5-5.6-12.5-12.5V178.9c0-29.2-23.8-53-53-53H180.5c10.8,12.5,17.3,28.8,17.3,46.6
				l-0.1,228.7C197.8,408,192.2,413.6,185.3,413.6z"/>
			<path class="st3" d="M495.9,217.5H263.5c-6.9,0-12.5-5.6-12.5-12.5c0-6.9,5.6-12.5,12.5-12.5h232.4c6.9,0,12.5,5.6,12.5,12.5
				C508.4,211.9,502.8,217.5,495.9,217.5z"/>
			<path class="st3" d="M495.9,280.6H263.5c-6.9,0-12.5-5.6-12.5-12.5c0-6.9,5.6-12.5,12.5-12.5h232.4c6.9,0,12.5,5.6,12.5,12.5
				C508.4,275,502.8,280.6,495.9,280.6z"/>
			<path class="st3" d="M248,836h-4.3c-39.1,0-70.9-31.8-70.9-70.9l0-193.4c0-6.9,5.6-12.4,12.5-12.4h0c6.9,0,12.5,5.6,12.4,12.5
				l0,193.4c0,25.4,20.6,46,46,46h4.3c25.3,0,45.9-20.5,46-45.7l-0.5-10.2c0-0.2,0-0.4,0-0.6c0-39.1,31.8-70.9,70.9-70.9
				c6.9,0,12.5,5.6,12.5,12.5c0,6.9-5.6,12.5-12.5,12.5c-25.3,0-45.9,20.5-46,45.7l0.5,10.2c0,0.2,0,0.4,0,0.6
				C318.9,804.2,287.1,836,248,836z"/>
			<path class="st3" d="M781.4,892.5H484.4c-39.1,0-70.9-31.8-70.9-70.9l0.1-66.4c0-25.7-20.9-46.6-46.6-46.6
				c-6.9,0-12.5-5.6-12.5-12.5c0-6.9,5.6-12.5,12.5-12.5h294.1c43,0,77.9,35,77.9,77.9v6.5h100.7c6.9,0,12.5,5.6,12.5,12.5v41
				C852.3,860.6,820.4,892.5,781.4,892.5z M542.7,867.6h238.7c25.4,0,46-20.6,46-46V793H559.7v28.5
				C559.7,839.1,553.3,855.2,542.7,867.6z M421.2,708.6c10.8,12.5,17.3,28.8,17.3,46.6l-0.1,66.4c0,25.3,20.6,46,46,46h4.3
				c25.4,0,46-20.6,46-46v-41c0-6.9,5.6-12.5,12.5-12.5h166.9v-6.5c0-29.2-23.8-53-53-53H421.2z"/>
			<path class="st3" d="M451.1,641.2c-96.5,0-169-40.1-212.8-73.7c-47.5-36.4-72-72.6-73-74.1c-3-4.5-2.8-10.3,0.5-14.6
				c1.2-1.5,29.3-37.4,78.4-73.5c65.3-48.1,136.9-73.6,207-73.6s141.7,25.4,207,73.6c49.1,36.2,77.2,72,78.4,73.5
				c3.3,4.2,3.5,10.1,0.5,14.6c-1,1.5-25.6,37.7-73,74.1C620.1,601.1,547.6,641.2,451.1,641.2z M191.4,486.9
				c9.4,12,30.6,36.8,62.7,61.3c59.2,45.1,125.4,68,197,68c147.9,0,237.3-100.9,259.7-129.4c-10.5-12-34.2-37.2-68.1-62
				c-42.4-31.2-110.1-68.3-191.6-68.3C315.1,356.6,216.2,458.7,191.4,486.9z"/>
			<path class="st3" d="M451.1,641.2c-85.3,0-154.8-69.4-154.8-154.8s69.4-154.8,154.8-154.8s154.8,69.4,154.8,154.8
				S536.4,641.2,451.1,641.2z M451.1,356.6c-71.6,0-129.9,58.3-129.9,129.9s58.3,129.9,129.9,129.9S581,558,581,486.4
				S522.7,356.6,451.1,356.6z"/>
			<g>
				<path class="st3" d="M365.3,534.5c-2.3,0-4.7-1-6.3-2.9c-3-3.5-2.6-8.7,0.9-11.7l56.5-48.7c1.7-1.5,3.9-2.2,6.2-2
					c2.2,0.2,4.3,1.3,5.7,3.1l22.1,27.7l68-59.4c3.5-3,8.7-2.7,11.7,0.8c3,3.5,2.7,8.7-0.8,11.7l-74.5,65.1c-1.7,1.5-3.9,2.2-6.2,2
					c-2.3-0.2-4.3-1.3-5.7-3.1l-22.1-27.8l-50,43C369.2,533.8,367.2,534.5,365.3,534.5z"/>
				<path class="st3" d="M529.1,484.8c-4.6,0-8.3-3.7-8.3-8.3v-26.6h-28.2c-4.6,0-8.3-3.7-8.3-8.3c0-4.6,3.7-8.3,8.3-8.3h36.5
					c4.6,0,8.3,3.7,8.3,8.3v34.9C537.4,481.1,533.7,484.8,529.1,484.8z"/>
			</g>
		</g>
		<path class="st3" d="M568.1,706.4c-6.9,0-12.5-5.6-12.5-12.5v-39.8c0-6.9,5.6-12.5,12.5-12.5c6.9,0,12.5,5.6,12.5,12.5V694
			C580.6,700.8,575,706.4,568.1,706.4z"/>
	</g>
</g>
</svg>
