<?xml version="1.0" encoding="utf-8"?>
<!-- Generator: Adobe Illustrator 23.0.6, SVG Export Plug-In . SVG Version: 6.00 Build 0)  -->
<svg version="1.1" id="Capa_1" xmlns="http://www.w3.org/2000/svg" xmlns:xlink="http://www.w3.org/1999/xlink" x="0px" y="0px"
	 viewBox="0 0 500.9 500.9" style="enable-background:new 0 0 500.9 500.9;" xml:space="preserve">
<style type="text/css">
	.st0{fill:#10069F;}
</style>
<g>
	<g>
		<path  d="M257.2,76.6c20.8,0,39.7,4.9,56.6,14.6c12.7,7.3,23.1,16.6,31,28c4.3,6.1,2.4,14.7-3.9,18.7l-0.5,0.3
			c-2.2,1.4-4.6,2-7,2c-4.2,0-8.4-2-11-5.8c-5.1-7.2-11.9-13.7-20.4-19.5c-12.7-8.7-27-13.1-42.8-13.1c-22.5,0-41.4,6.5-56.8,19.4
			s-23.1,30.4-23.1,52.6c0,9.7,1.8,19.2,5.3,28.4s7.2,16.4,11.1,21.4c3.9,5,9.3,11.7,16.4,19.9c7,8.2,12.1,14.3,15.1,18.4h65.4
			c5.8,0,10.6,4.7,10.6,10.6s-4.7,10.6-10.6,10.6h-52.8c3.3,9.1,5,17.9,5,26.7c0,27.2-13.6,50.6-40.7,70.4c8.4-3,17.4-4.5,27.2-4.5
			c11.4,0,24.7,3.7,40,11.1c15.3,7.4,27.7,11.1,37.5,11.1c10.7,0,20.8-2.2,30.2-6.5c3.4-1.6,6.5-3.2,9.2-4.9
			c2.3-1.4,4.8-2.1,7.2-2.1c4.6,0,9.1,2.4,11.6,6.7c3.5,6.1,1.7,13.8-4.1,17.8c-15,10.5-33.4,15.7-55.2,15.7
			c-15.8,0-31.4-3.9-46.8-11.8S231,401,217.6,401c-11.8,0-27.6,4.7-47.5,14.2c-1.8,0.9-3.8,1.3-5.6,1.3c-4.9,0-9.7-2.8-11.9-7.6l0,0
			c-2.9-6.4-0.3-14,6.1-17.1c17.6-8.7,31.4-19.1,41.6-31.2c12.2-14.6,18.4-30.1,18.4-46.5c0-9.7-2.7-19.9-8-30.7H143
			c-5.8,0-10.6-4.7-10.6-10.6s4.7-10.6,10.6-10.6h52.3c-1-1.3-4.4-5.1-10.3-11.3c-5.9-6.2-9.6-10.4-11.3-12.6
			c-1.7-2.2-4.7-6.3-9.1-12.3c-4.4-6-7.4-11.2-9.1-15.6c-1.7-4.4-3.3-9.8-4.8-16.4c-1.5-6.5-2.3-13.3-2.3-20.4
			c0-26.5,10.4-49.2,31.2-68.2C200.5,86.1,226.3,76.6,257.2,76.6 M257.2,57.6c-35.6,0-66,11.2-90.3,33.4
			c-24.8,22.6-37.4,50.3-37.4,82.2c0,8.4,0.9,16.7,2.8,24.6c1.7,7.5,3.6,13.7,5.6,18.9c2.3,5.9,6,12.4,11.4,19.9
			c1.7,2.3,3.1,4.3,4.4,6.1H143c-16.3,0-29.6,13.3-29.6,29.6s13.3,29.6,29.6,29.6h54.6c1.2,4.1,1.8,8,1.8,11.7
			c0,11.9-4.6,23.2-13.9,34.3c-8.4,10-20.3,18.9-35.5,26.4c-7.5,3.7-13.2,10.1-15.9,18c-2.8,7.9-2.4,16.4,1.1,24
			c5.2,11.3,16.6,18.7,29.1,18.7c4.8,0,9.5-1.1,13.8-3.1c21.4-10.2,33.2-12.3,39.3-12.3c10.3,0,22,3.3,34.6,9.7
			c18.1,9.2,36.7,13.9,55.4,13.9c25.7,0,48-6.4,66.1-19.1c6.7-4.6,11.3-11.6,13.1-19.4c1.8-8,0.6-16.3-3.5-23.4
			c-5.8-10-16.5-16.3-28.1-16.3c-6.1,0-12,1.7-17.2,4.9c-2.1,1.3-4.5,2.6-7.2,3.8c-6.9,3.2-14.2,4.8-22.2,4.8
			c-4.7,0-13.5-1.6-29.2-9.2c-10.5-5.1-20.2-8.6-29.4-10.7c9.1-15,13.7-31.4,13.7-49.2c0-2.5-0.1-5.1-0.3-7.7h29.1
			c16.3,0,29.6-13.3,29.6-29.6s-13.3-29.6-29.6-29.6h-56.2c-2.7-3.3-6-7.2-9.9-11.7c-6.8-7.9-12.1-14.4-15.7-19.1
			c-1.9-2.5-4.9-7.3-8.4-16.6c-2.7-7.1-4-14.2-4-21.6c0-16.6,5.2-28.7,16.3-38c12-10.1,26.6-14.9,44.7-14.9c11.9,0,22.4,3.2,32,9.8
			c6.6,4.5,11.9,9.5,15.6,14.8c6.1,8.6,16,13.8,26.5,13.8c6.1,0,12-1.7,17.1-5l0.5-0.3c7.4-4.7,12.7-12.3,14.5-21
			c1.7-8.6-0.1-17.5-5.1-24.7c-9.5-13.6-22-24.8-37.1-33.5C303.4,63.4,281.2,57.6,257.2,57.6L257.2,57.6z"/>
	</g>
</g>
</svg>
