<?xml version="1.0" encoding="utf-8"?>
<!-- Generator: Adobe Illustrator 23.0.6, SVG Export Plug-In . SVG Version: 6.00 Build 0)  -->
<svg xmlns="http://www.w3.org/2000/svg" xmlns:xlink="http://www.w3.org/1999/xlink" version="1.1" id="Capa_1" x="0px" y="0px" viewBox="0 0 436.9 382.2" xml:space="preserve"><g><g><path d="M370.6,378.2H11.6c-4.2,0-7.6-3.4-7.6-7.6V11.6C4,7.4,7.4,4,11.6,4h358.9c4.2,0,7.6,3.4,7.6,7.6v38.8    c0,4.2-3.4,7.6-7.6,7.6c-4.2,0-7.6-3.4-7.6-7.6V19.3H19.3v343.7h343.7V161.4c0-4.2,3.4-7.6,7.6-7.6c4.2,0,7.6,3.4,7.6,7.6v209.2    C378.2,374.8,374.8,378.2,370.6,378.2z" style="&#10;    fill: white;&#10;"/><path d="M370.6,382.2H11.6C5.2,382.2,0,377,0,370.6V11.6C0,5.2,5.2,0,11.6,0h358.9c6.4,0,11.6,5.2,11.6,11.6v38.8    c0,6.4-5.2,11.6-11.6,11.6c-6.4,0-11.6-5.2-11.6-11.6V23.3H23.3v335.7h335.7V161.4c0-6.4,5.2-11.6,11.6-11.6    c6.4,0,11.6,5.2,11.6,11.6v209.2C382.2,377,377,382.2,370.6,382.2z M11.6,8C9.6,8,8,9.6,8,11.6v358.9c0,2,1.6,3.6,3.6,3.6h358.9    c2,0,3.6-1.6,3.6-3.6V161.4c0-2-1.6-3.6-3.6-3.6c-2,0-3.6,1.6-3.6,3.6v201.5c0,2.2-1.8,4-4,4H19.3c-2.2,0-4-1.8-4-4V19.3    c0-2.2,1.8-4,4-4h343.7c2.2,0,4,1.8,4,4v31.2c0,2,1.6,3.6,3.6,3.6c2,0,3.6-1.6,3.6-3.6V11.6c0-2-1.6-3.6-3.6-3.6H11.6z" style="&#10;    fill: white;&#10;"/></g><g><path d="M217.9,321.7C217.9,321.7,217.9,321.7,217.9,321.7c-2.5,0-4.7-1.2-6.2-3.1l-78.2-106.7    c-2.5-3.4-1.8-8.2,1.6-10.7c3.4-2.5,8.2-1.8,10.7,1.7l72.1,98.4l201.2-270c2.5-3.4,7.3-4.1,10.7-1.6c3.4,2.5,4.1,7.3,1.6,10.7    L224,318.6C222.6,320.5,220.3,321.7,217.9,321.7z" style="&#10;    fill: gold;&#10;"/><path id="gold" d="M217.9,325.7L217.9,325.7c-3.7,0-7.2-1.8-9.4-4.8l-78.2-106.7c-3.8-5.2-2.7-12.5,2.5-16.3    c5.2-3.8,12.5-2.7,16.3,2.5l68.9,94L415.9,28.8c3.8-5.1,11.1-6.2,16.3-2.4c5.1,3.8,6.2,11.1,2.4,16.3L227.2,321    C225,323.9,221.5,325.7,217.9,325.7z M139.7,203.7c-0.7,0-1.5,0.2-2.1,0.7c-1.6,1.2-2,3.5-0.8,5.1L215,316.2    c0.7,0.9,1.8,1.5,2.9,1.5l0,4v-4c1.1,0,2.2-0.5,2.9-1.5L428.1,38c1.2-1.6,0.9-3.9-0.8-5.1c-1.6-1.2-3.9-0.9-5.1,0.7l-201.2,270    c-0.8,1-1.9,1.6-3.2,1.6c0,0,0,0,0,0c-1.3,0-2.5-0.6-3.2-1.6l-72.1-98.4C141.9,204.2,140.8,203.7,139.7,203.7z" style="     fill: gold; "/></g></g></svg>