<?xml version="1.0" encoding="utf-8"?>
<!-- Generator: Adobe Illustrator 23.0.6, SVG Export Plug-In . SVG Version: 6.00 Build 0)  -->
<svg version="1.1" id="Режим_изоляции"
	 xmlns="http://www.w3.org/2000/svg" xmlns:xlink="http://www.w3.org/1999/xlink" x="0px" y="0px" viewBox="0 0 512 512"
	 style="enable-background:new 0 0 512 512;" xml:space="preserve">
<style type="text/css">
	.st0{fill:#1006A1;}
</style>
<g>
	<path id="Shape" class="st0" d="M378.4,59.7H133.5c-7.7,0-15,3.4-20,9.3L6,197c-8,9.5-7.9,23.3,0.1,32.7l230,272
		c5,5.8,12.3,9.2,19.9,9.2c7.7,0,14.9-3.4,19.9-9.2l230-272c8-9.4,8-23.3,0.1-32.7L398.4,69C393.4,63.1,386.1,59.7,378.4,59.7
		L378.4,59.7z M330.5,204.8l58.1-120.9l101.7,120.9H330.5z M256,90.3l48.1,114.5h-96.3L256,90.3z M194.5,192.5L138.9,76.8h104.3
		L194.5,192.5z M268.8,76.8h104.3l-55.6,115.7L268.8,76.8z M123.4,83.9l58.1,120.9h-68.3l19.8-38.8c1.4-2.7,1.2-6-0.4-8.5
		c-1.7-2.6-4.6-4-7.6-3.9c-3,0.2-5.8,1.9-7.2,4.6L94,204.8H21.7L123.4,83.9z M21.8,221.9h72.3l84.7,161.4c1.4,2.8,4.1,4.6,7.2,4.7
		c3.1,0.1,6-1.4,7.7-4c1.6-2.6,1.7-5.9,0.2-8.6l-80.5-153.4h74.7L241,481L21.8,221.9z M262.9,490.7c-0.6,0.7-1.4,1.2-2.2,1.6
		l-55.2-270.4h101L265.1,425c-0.7,3,0.3,6.2,2.6,8.2s5.5,2.7,8.5,1.7c2.9-1,5.1-3.5,5.6-6.6l42.2-206.5h74.7l-80.5,153.4
		c-1.5,2.7-1.4,6,0.2,8.6c1.6,2.6,4.6,4.2,7.7,4c3.1-0.1,5.9-2,7.2-4.7L418,221.9h72.3L262.9,490.7z"/>
	<path class="st0" d="M460.8,34.1c4.7,0,8.5-3.8,8.5-8.5V8.5c0-4.7-3.8-8.5-8.5-8.5s-8.5,3.8-8.5,8.5v17.1
		C452.3,30.3,456.1,34.1,460.8,34.1z"/>
	<path class="st0" d="M452.3,93.9c0,4.7,3.8,8.5,8.5,8.5s8.5-3.8,8.5-8.5V76.8c0-4.7-3.8-8.5-8.5-8.5s-8.5,3.8-8.5,8.5V93.9z"/>
	<path class="st0" d="M435.2,59.7c4.7,0,8.5-3.8,8.5-8.5s-3.8-8.5-8.5-8.5h-17.1c-4.7,0-8.5,3.8-8.5,8.5s3.8,8.5,8.5,8.5H435.2z"/>
	<path class="st0" d="M503.5,42.7h-17.1c-4.7,0-8.5,3.8-8.5,8.5s3.8,8.5,8.5,8.5h17.1c4.7,0,8.5-3.8,8.5-8.5S508.2,42.7,503.5,42.7z
		"/>
	<path class="st0" d="M51.2,392.5c4.7,0,8.5-3.8,8.5-8.5v-17.1c0-4.7-3.8-8.5-8.5-8.5s-8.5,3.8-8.5,8.5V384
		C42.7,388.7,46.5,392.5,51.2,392.5z"/>
	<path class="st0" d="M42.7,452.3c0,4.7,3.8,8.5,8.5,8.5s8.5-3.8,8.5-8.5v-17.1c0-4.7-3.8-8.5-8.5-8.5s-8.5,3.8-8.5,8.5V452.3z"/>
	<path class="st0" d="M8.5,418.1h17.1c4.7,0,8.5-3.8,8.5-8.5c0-4.7-3.8-8.5-8.5-8.5H8.5c-4.7,0-8.5,3.8-8.5,8.5
		C0,414.3,3.8,418.1,8.5,418.1z"/>
	<path class="st0" d="M102.4,409.6c0-4.7-3.8-8.5-8.5-8.5H76.8c-4.7,0-8.5,3.8-8.5,8.5c0,4.7,3.8,8.5,8.5,8.5h17.1
		C98.6,418.1,102.4,414.3,102.4,409.6z"/>
</g>
</svg>
