<?xml version="1.0" encoding="utf-8"?>
<!-- Generator: Adobe Illustrator 23.0.6, SVG Export Plug-In . SVG Version: 6.00 Build 0)  -->
<svg version="1.1" id="Layer_3" xmlns="http://www.w3.org/2000/svg" xmlns:xlink="http://www.w3.org/1999/xlink" x="0px" y="0px"
	 viewBox="0 0 2121.1 513" style="enable-background:new 0 0 2121.1 513;" xml:space="preserve">
<style type="text/css">
	.st0{fill:#1006A1;}
</style>
<g>
	<g>
		<rect x="1389.7" y="250" class="st0" width="159.6" height="13"/>
	</g>
	<g>
		<rect x="529.7" y="250" class="st0" width="159.6" height="13"/>
	</g>
	<g>
		<g>
			<path class="st0" d="M1786.5,114.2c4.1,0,7.5-3.4,7.5-7.5V43.6c0-8.1,6.6-14.6,14.6-14.6c8.1,0,14.6,6.6,14.6,14.6v130.2
				c0,4.1,3.4,7.5,7.5,7.5c4.1,0,7.5-3.4,7.5-7.5V30.6c0-8.1,6.6-14.6,14.6-14.6s14.6,6.6,14.6,14.6v143.2c0,4.1,3.4,7.5,7.5,7.5
				c4.1,0,7.5-3.4,7.5-7.5V61.7c0-8.1,6.6-14.6,14.6-14.6c8.1,0,14.6,6.6,14.6,14.6v112.2c0,4.1,3.4,7.5,7.5,7.5
				c4.1,0,7.5-3.4,7.5-7.5V77.7c0,0,0,0,0,0c0-8.1,6.6-14.6,14.6-14.6c8.1,0,14.6,6.6,14.6,14.6v22.7c0,4.1,3.4,7.5,7.5,7.5
				c4.1,0,7.5-3.4,7.5-7.5V77.7c0-16.3-13.3-29.6-29.6-29.6c-5.9,0-11.4,1.7-16,4.7c-3.8-12-15-20.7-28.3-20.7
				c-5.3,0-10.3,1.4-14.6,3.9v-5.3c0-16.3-13.3-29.6-29.6-29.6c-12.3,0-22.9,7.6-27.4,18.3c-4.8-3.3-10.6-5.3-16.9-5.3
				c-16.3,0-29.6,13.3-29.6,29.6v63.1C1779,110.9,1782.4,114.2,1786.5,114.2L1786.5,114.2z"/>
			<path class="st0" d="M1919.2,182.4c-4.7,0-8.5-3.8-8.5-8.5V61.7c0-7.5-6.1-13.6-13.6-13.6c-7.5,0-13.6,6.1-13.6,13.6v112.2
				c0,4.7-3.8,8.5-8.5,8.5c-4.7,0-8.5-3.8-8.5-8.5V30.6c0-7.5-6.1-13.6-13.6-13.6c-7.5,0-13.6,6.1-13.6,13.6v143.2
				c0,4.7-3.8,8.5-8.5,8.5c-4.7,0-8.5-3.8-8.5-8.5V43.6c0-7.5-6.1-13.6-13.6-13.6c-7.5,0-13.6,6.1-13.6,13.6v63.1
				c0,4.7-3.8,8.5-8.5,8.5s-8.5-3.8-8.5-8.5V43.6c0-16.9,13.7-30.6,30.6-30.6c5.9,0,11.5,1.7,16.4,4.8c5-10.9,15.8-17.8,27.8-17.8
				c16.9,0,30.6,13.7,30.6,30.6v3.6c4.2-2.1,8.9-3.2,13.6-3.2c13,0,24.4,8.1,28.8,20.2c4.7-2.7,10-4.2,15.4-4.2
				c16.9,0,30.6,13.7,30.6,30.6v22.7c0,4.7-3.8,8.5-8.5,8.5s-8.5-3.8-8.5-8.5V77.7c0-7.5-6.1-13.6-13.6-13.6s-13.6,6.1-13.6,13.6
				v96.2C1927.7,178.6,1923.9,182.4,1919.2,182.4z M1897.1,46c8.6,0,15.6,7,15.6,15.6v112.2c0,3.6,2.9,6.5,6.5,6.5s6.5-2.9,6.5-6.5
				V77.7c0-8.6,7-15.6,15.6-15.6c8.6,0,15.6,7,15.6,15.6v22.7c0,3.6,2.9,6.5,6.5,6.5s6.5-2.9,6.5-6.5V77.7
				c0-15.8-12.8-28.6-28.6-28.6c-5.5,0-10.8,1.6-15.4,4.5l-1.1,0.7l-0.4-1.2c-3.8-12-14.8-20-27.3-20c-4.9,0-9.8,1.3-14.1,3.7
				l-1.5,0.9v-7c0-15.8-12.8-28.6-28.6-28.6c-11.6,0-22,6.9-26.4,17.7l-0.5,1.1l-1-0.7c-4.8-3.3-10.4-5.1-16.3-5.1
				c-15.8,0-28.6,12.8-28.6,28.6v63.1c0,3.6,2.9,6.5,6.5,6.5s6.5-2.9,6.5-6.5V43.6c0-8.6,7-15.6,15.6-15.6c8.6,0,15.6,7,15.6,15.6
				v130.2c0,3.6,2.9,6.5,6.5,6.5c3.6,0,6.5-2.9,6.5-6.5V30.6c0-8.6,7-15.6,15.6-15.6s15.6,7,15.6,15.6v143.2c0,3.6,2.9,6.5,6.5,6.5
				c3.6,0,6.5-2.9,6.5-6.5V61.7C1881.5,53,1888.5,46,1897.1,46z"/>
		</g>
		<g>
			<path class="st0" d="M1971,132.3c0-4.1-3.4-7.5-7.5-7.5c-4.1,0-7.5,3.4-7.5,7.5v165.4c0,16.7-8.3,32.1-22.2,41.3l-5.9,3.9
				c-3.4,2.2-5.4,6-5.4,10v151.5c0,4.1,3.4,7.5,7.5,7.5c4.1,0,7.5-3.4,7.5-7.5V354.5l4.5-3c18.1-12,28.9-32.1,28.9-53.8V132.3z"/>
			<path class="st0" d="M1930,513c-4.7,0-8.5-3.8-8.5-8.5V352.9c0-4.4,2.2-8.4,5.8-10.9l5.9-3.9c13.6-9,21.7-24.2,21.7-40.5V132.3
				c0-4.7,3.8-8.5,8.5-8.5s8.5,3.8,8.5,8.5v165.4c0,22-11,42.5-29.3,54.7l-4.1,2.7v149.4C1938.5,509.1,1934.7,513,1930,513z
				 M1963.5,125.8c-3.6,0-6.5,2.9-6.5,6.5v165.4c0,17-8.5,32.8-22.6,42.2l-5.9,3.9c-3.1,2.1-4.9,5.5-4.9,9.2v151.5
				c0,3.6,2.9,6.5,6.5,6.5s6.5-2.9,6.5-6.5V354l5-3.3c17.8-11.8,28.5-31.6,28.5-53V132.3C1970,128.7,1967,125.8,1963.5,125.8z"/>
		</g>
		<g>
			<path class="st0" d="M1917.8,230.5c-12.6-14.7-34.7-17.2-50.3-5.7l-3.6,2.7l-3.6-2.7c-13.1-9.7-30.8-9.5-43.6-0.4v-31.8
				c0-14-9.6-25.8-22.6-29.2v-24.7c0-4.1-3.4-7.5-7.5-7.5c-4.1,0-7.5,3.4-7.5,7.5v24.7c-13,3.3-22.6,15.2-22.6,29.2v93.8
				c0,25.4,12.3,49.3,32.9,64.1l9,6.5v147.5c0,4.1,3.4,7.5,7.5,7.5s7.5-3.4,7.5-7.5V353.1c0-2.4-1.2-4.7-3.1-6.1l-12.2-8.7
				c-16.7-12-26.6-31.4-26.6-52v-93.8c0-8.3,6.8-15.1,15.1-15.1c8.3,0,15.1,6.8,15.1,15.1v55.7c-2,11.6,1.4,23.9,10.2,32.7
				l34.7,34.9c4.6,4.6,10.8,7.2,17.3,7.2c6.6,0,12.7-2.6,17.3-7.2l34.7-34.9C1929.5,267.2,1930.3,245.1,1917.8,230.5L1917.8,230.5z
				 M1905.3,270.3l-34.7,34.9c-1.8,1.8-4.2,2.8-6.7,2.8s-4.9-1-6.7-2.8l-34.7-34.9c-8.1-8.1-8.6-21.3-1.1-30
				c4.3-5.1,10.6-7.7,16.8-7.7c4.6,0,9.2,1.4,13.1,4.3l6.9,5.1c3.4,2.5,7.9,2.5,11.3,0l6.9-5.1c9.3-6.9,22.4-5.4,30,3.4
				C1913.9,249,1913.4,262.1,1905.3,270.3L1905.3,270.3z"/>
			<path class="st0" d="M1805.9,513c-4.7,0-8.5-3.8-8.5-8.5v-147l-8.6-6.2c-20.9-15-33.3-39.3-33.3-65v-93.8
				c0-13.9,9.3-26.1,22.6-29.9v-23.9c0-4.7,3.8-8.5,8.5-8.5s8.5,3.8,8.5,8.5v23.9c13.3,3.8,22.6,16,22.6,29.9v30
				c13.3-8.5,30.4-8,43.2,1.5l3,2.2l3-2.2c16-11.8,38.7-9.3,51.6,5.8l0,0c12.9,15,12,37.8-1.9,51.8l-34.7,34.9
				c-4.8,4.8-11.2,7.5-18,7.5c-6.8,0-13.2-2.7-18-7.5l-34.7-34.9c-8.7-8.7-12.6-21.2-10.5-33.5v-55.6c0-7.8-6.3-14.1-14.1-14.1
				s-14.1,6.3-14.1,14.1v93.8c0,20.2,9.8,39.3,26.2,51.1l12.2,8.7c2.2,1.6,3.5,4.2,3.5,6.9v151.3
				C1814.4,509.1,1810.6,513,1805.9,513z M1786.5,132.2c-3.6,0-6.5,2.9-6.5,6.5v25.5l-0.8,0.2c-12.9,3.3-21.9,14.9-21.9,28.2v93.8
				c0,25,12.1,48.7,32.5,63.3l9.5,6.8v148c0,3.6,2.9,6.5,6.5,6.5c3.6,0,6.5-2.9,6.5-6.5V353.1c0-2.1-1-4.1-2.7-5.3l-12.2-8.7
				c-16.9-12.2-27.1-31.9-27.1-52.8v-93.8c0-8.9,7.2-16.1,16.1-16.1s16.1,7.2,16.1,16.1l0,55.8c-2,11.6,1.7,23.5,9.9,31.8l34.7,34.9
				c4.4,4.5,10.3,6.9,16.6,6.9s12.2-2.5,16.6-6.9l34.7-34.9c13.2-13.3,14-34.8,1.8-49.1l0,0c-12.3-14.3-33.8-16.7-48.9-5.5l-4.2,3.1
				l-4.2-3.1c-12.6-9.3-29.6-9.5-42.4-0.4l-1.6,1.1v-33.8c0-13.3-9-24.9-21.9-28.2l-0.8-0.2v-25.5
				C1793,135.1,1790.1,132.2,1786.5,132.2z M1863.9,308.9c-2.8,0-5.4-1.1-7.4-3.1l-34.7-34.9c-8.5-8.5-9-22.3-1.2-31.4
				c4.4-5.1,10.8-8,17.6-8c5,0,9.7,1.6,13.7,4.5l6.9,5.1c3,2.2,7.1,2.2,10.1,0l6.9-5.1c9.7-7.2,23.5-5.6,31.3,3.5
				c7.8,9.1,7.3,22.9-1.2,31.4l-34.7,34.9C1869.3,307.8,1866.7,308.9,1863.9,308.9z M1838.2,233.6c-6.2,0-12.1,2.7-16.1,7.3
				c-7.1,8.3-6.7,20.9,1.1,28.7l34.7,34.9c1.6,1.6,3.7,2.5,6,2.5s4.4-0.9,6-2.5l34.7-34.9c7.7-7.8,8.2-20.4,1.1-28.7
				c-7.2-8.4-19.7-9.8-28.6-3.2l-6.9,5.1c-3.7,2.8-8.8,2.8-12.5,0l-6.9-5.1C1847.1,235,1842.8,233.6,1838.2,233.6z"/>
		</g>
		<g>
			<path class="st0" d="M1984.4,436.4l-10.2-7.4c-3-2.2-5.9-4.8-8.5-7.7c-2.8-3.1-7.5-3.4-10.6-0.6c-3.1,2.8-3.4,7.5-0.6,10.6
				c3.3,3.7,7,7,10.9,9.8l7.1,5.1v58.1c0,4.1,3.4,7.5,7.5,7.5s7.5-3.4,7.5-7.5v-61.9C1987.5,440.1,1986.4,437.8,1984.4,436.4
				L1984.4,436.4z"/>
			<path class="st0" d="M1980,513c-4.7,0-8.5-3.8-8.5-8.5v-57.6l-6.7-4.8c-4-2.9-7.7-6.2-11.1-10c-3.1-3.5-2.8-8.9,0.7-12
				c1.7-1.5,3.9-2.3,6.1-2.2c2.3,0.1,4.4,1.1,5.9,2.8c2.5,2.8,5.3,5.4,8.3,7.5l10.2,7.4c2.2,1.6,3.5,4.2,3.5,6.9v61.9
				C1988.5,509.1,1984.7,513,1980,513z M1960.1,419.9c-1.6,0-3.1,0.6-4.3,1.7c-2.7,2.4-2.9,6.5-0.5,9.2c3.3,3.7,6.9,6.9,10.8,9.7
				l7.5,5.4v58.6c0,3.6,2.9,6.5,6.5,6.5s6.5-2.9,6.5-6.5v-61.9c0-2.1-1-4.1-2.7-5.3l-10.2-7.4c-3.1-2.2-6-4.9-8.7-7.8
				c-1.2-1.3-2.8-2.1-4.5-2.2C1960.3,419.9,1960.2,419.9,1960.1,419.9z"/>
		</g>
		<g>
			<path class="st0" d="M2094,184.6c-4.7,0-9,1.2-12.8,3.4c-3.7-9.8-13.3-16.8-24.4-16.8c-4,0-7.7,0.9-11.1,2.5v-2.5
				c0-14.4-11.7-26.1-26.1-26.1c-10.5,0-19.5,6.2-23.7,15.1c-3-1-6.4-0.1-8.4,2.6c-2.5,3.3-1.8,8,1.5,10.5c2.8,2.1,4.5,5.4,4.5,8.9
				v109.6c0,4.1,3.4,7.5,7.5,7.5c4.1,0,7.5-3.4,7.5-7.5V171.2c0-6.1,5-11.1,11.1-11.1c6.1,0,11.1,5,11.1,11.1v120.5
				c0,4.1,3.4,7.5,7.5,7.5c4.1,0,7.5-3.4,7.5-7.5v-94.4c0-6.1,5-11.1,11.1-11.1c6.1,0,11.1,5,11.1,11.1v94.4c0,4.1,3.4,7.5,7.5,7.5
				c4.1,0,7.5-3.4,7.5-7.5v-80.9c0-6.1,5-11.1,11.1-11.1s11.1,5,11.1,11.1v184.7c0,14.5-6.3,28.3-17.2,37.8l-1.6,1.4
				c-1.6,1.4-2.6,3.5-2.6,5.7v64.1c0,4.1,3.4,7.5,7.5,7.5c4.1,0,7.5-3.4,7.5-7.5v-60.7c13.6-12.3,21.4-29.9,21.4-48.3V210.8
				C2120.1,196.4,2108.4,184.6,2094,184.6L2094,184.6z"/>
			<path class="st0" d="M2091.2,513c-4.7,0-8.5-3.8-8.5-8.5v-64.1c0-2.5,1.1-4.8,2.9-6.4l1.6-1.4c10.7-9.3,16.9-22.9,16.9-37.1
				V210.8c0-5.6-4.5-10.1-10.1-10.1c-5.6,0-10.1,4.5-10.1,10.1v80.9c0,4.7-3.8,8.5-8.5,8.5s-8.5-3.8-8.5-8.5v-94.4
				c0-5.6-4.5-10.1-10.1-10.1c-5.6,0-10.1,4.5-10.1,10.1v94.4c0,4.7-3.8,8.5-8.5,8.5s-8.5-3.8-8.5-8.5V171.2
				c0-5.6-4.5-10.1-10.1-10.1c-5.6,0-10.1,4.5-10.1,10.1v120.5c0,4.7-3.8,8.5-8.5,8.5s-8.5-3.8-8.5-8.5V182.1c0-3.2-1.5-6.1-4.1-8.1
				c-1.8-1.4-3-3.4-3.3-5.6s0.2-4.5,1.6-6.3c2-2.7,5.4-3.9,8.7-3.2c4.6-9.1,14-14.9,24.2-14.9c15,0,27.1,12.2,27.1,27.1v1
				c3.2-1.3,6.6-2,10.1-2c10.8,0,20.7,6.6,24.9,16.4c3.8-1.9,8-3,12.3-3c7.2,0,14,2.8,19.2,8s8,11.9,7.9,19.2v184.7
				c0,18.5-7.8,36.2-21.4,48.7v60.3C2099.7,509.1,2095.9,513,2091.2,513z M2094,198.7c6.7,0,12.1,5.4,12.1,12.1v184.7
				c0,14.8-6.4,28.9-17.6,38.6l-1.6,1.4c-1.4,1.2-2.2,3-2.2,4.9v64.1c0,3.6,2.9,6.5,6.5,6.5s6.5-2.9,6.5-6.5v-61.2l0.3-0.3
				c13.4-12.1,21.1-29.5,21.1-47.5V210.8c0-6.7-2.6-13-7.4-17.8s-11.1-7.4-17.8-7.4c-4.3,0-8.6,1.1-12.3,3.2l-1,0.6l-0.4-1.1
				c-3.7-9.7-13.1-16.2-23.5-16.2c-3.7,0-7.3,0.8-10.7,2.4l-1.4,0.7v-4.1c0-13.8-11.3-25.1-25.1-25.1c-9.7,0-18.6,5.7-22.8,14.5
				l-0.4,0.8l-0.8-0.3c-2.7-0.9-5.6,0-7.3,2.3c-1,1.4-1.5,3.1-1.2,4.8c0.2,1.7,1.1,3.2,2.5,4.3c3.1,2.3,4.9,5.8,4.9,9.7v109.6
				c0,3.6,2.9,6.5,6.5,6.5s6.5-2.9,6.5-6.5V171.2c0-6.7,5.4-12.1,12.1-12.1c6.7,0,12.1,5.4,12.1,12.1v120.5c0,3.6,2.9,6.5,6.5,6.5
				s6.5-2.9,6.5-6.5v-94.4c0-6.7,5.4-12.1,12.1-12.1c6.7,0,12.1,5.4,12.1,12.1v94.4c0,3.6,2.9,6.5,6.5,6.5s6.5-2.9,6.5-6.5v-80.9
				C2081.9,204.1,2087.3,198.7,2094,198.7z"/>
		</g>
		<g>
			<path class="st0" d="M2031.2,333.6l-2.3,1.7l-2.3-1.7c-13.6-10.1-32.9-7.9-43.9,4.9c-11,12.8-10.3,32.1,1.6,44l29.2,29.3
				c4.1,4.1,9.6,6.4,15.4,6.4s11.3-2.3,15.4-6.4l29.2-29.3c11.9-11.9,12.6-31.3,1.6-44C2064.1,325.7,2044.8,323.5,2031.2,333.6
				L2031.2,333.6z M2062.8,372l-29.2,29.3c-1.3,1.3-3,2-4.8,2s-3.5-0.7-4.8-2c0,0,0,0,0,0l-29.2-29.3c-6.4-6.4-6.8-16.8-0.9-23.7
				c3.4-4,8.3-6.1,13.3-6.1c3.6,0,7.3,1.1,10.3,3.4l5.8,4.3c3.3,2.4,7.7,2.4,11,0l5.8-4.3c7.3-5.4,17.7-4.2,23.6,2.7
				C2069.6,355.2,2069.2,365.6,2062.8,372z"/>
			<path class="st0" d="M2028.8,419.3c-6.1,0-11.8-2.4-16.1-6.7l-29.2-29.3c-12.2-12.3-13-32.2-1.7-45.4
				c11.4-13.2,31.2-15.5,45.3-5.1l1.7,1.3l1.7-1.3c14-10.4,33.9-8.1,45.3,5.1c11.3,13.2,10.6,33.1-1.7,45.4l-29.2,29.3
				C2040.7,416.9,2034.9,419.3,2028.8,419.3z M2007.2,328.3c-8.9,0-17.7,3.7-23.9,10.9c-10.6,12.4-9.9,31.1,1.6,42.7l29.2,29.3
				c3.9,3.9,9.2,6.1,14.7,6.1s10.8-2.2,14.7-6.1l29.2-29.3c11.5-11.6,12.2-30.3,1.6-42.7c-10.7-12.4-29.4-14.5-42.6-4.8l-2.9,2.2
				l-2.9-2.2C2020.3,330.3,2013.8,328.3,2007.2,328.3z M2028.8,404.3c-2.1,0-4-0.8-5.5-2.3l-29.2-29.3c-6.7-6.8-7.2-17.8-0.9-25
				c3.5-4.1,8.6-6.4,14-6.4c4,0,7.8,1.2,10.9,3.6l5.8,4.3c2.9,2.2,6.8,2.2,9.8,0l5.8-4.3c7.7-5.7,18.7-4.5,24.9,2.8
				c6.2,7.3,5.8,18.2-0.9,25l-29.2,29.3C2032.9,403.5,2030.9,404.3,2028.8,404.3z M2007.2,343.3c-4.8,0-9.4,2.1-12.5,5.7
				c-5.6,6.5-5.2,16.3,0.8,22.3l29.2,29.3c1.1,1.1,2.5,1.7,4.1,1.7c1.5,0,3-0.6,4.1-1.7l29.2-29.3c6-6,6.4-15.8,0.8-22.3
				c-5.6-6.5-15.4-7.6-22.2-2.5l-5.8,4.3c-3.6,2.7-8.5,2.7-12.1,0l-5.8-4.3C2014.1,344.4,2010.8,343.3,2007.2,343.3z"/>
		</g>
		<g>
			<path class="st0" d="M1655.3,436.4l-10.2-7.4c-13.7-9.9-21.9-25.8-21.9-42.7v-13.5c0-4.1-3.4-7.5-7.5-7.5c-4.1,0-7.5,3.4-7.5,7.5
				v13.5c0,21.7,10.5,42.3,28.2,54.9l7.1,5.1v58.1c0,4.1,3.4,7.5,7.5,7.5c4.1,0,7.5-3.4,7.5-7.5v-61.9
				C1658.4,440.1,1657.3,437.8,1655.3,436.4z"/>
			<path class="st0" d="M1650.9,513c-4.7,0-8.5-3.8-8.5-8.5v-57.6l-6.7-4.8c-17.9-12.9-28.6-33.7-28.6-55.8v-13.5
				c0-4.7,3.8-8.5,8.5-8.5s8.5,3.8,8.5,8.5v13.5c0,16.6,8,32.3,21.5,41.9l10.2,7.4c2.2,1.6,3.5,4.2,3.5,6.9v61.9
				C1659.4,509.1,1655.6,513,1650.9,513z M1615.6,366.3c-3.6,0-6.5,2.9-6.5,6.5v13.5c0,21.4,10.4,41.6,27.8,54.1l7.5,5.4v58.6
				c0,3.6,2.9,6.5,6.5,6.5c3.6,0,6.5-2.9,6.5-6.5v-61.9c0-2.1-1-4.1-2.7-5.3l0,0l-10.2-7.4c-14-10.1-22.3-26.3-22.3-43.6v-13.5
				C1622.1,369.2,1619.2,366.3,1615.6,366.3z"/>
		</g>
		<g>
			<path class="st0" d="M1775.8,361c-4.1,0-7.5,3.4-7.5,7.5v53.6c-2.6,4.2-5.8,7.9-9.5,11.1l-1.6,1.4c-1.6,1.4-2.6,3.5-2.6,5.7v64.1
				c0,4.1,3.4,7.5,7.5,7.5c4.1,0,7.5-3.4,7.5-7.5v-60.7c5-4.6,9.3-9.9,12.7-15.8c0.7-1.1,1-2.4,1-3.7v-55.7
				C1783.3,364.4,1780,361,1775.8,361L1775.8,361z"/>
			<path class="st0" d="M1762.1,513c-4.7,0-8.5-3.8-8.5-8.5v-64.1c0-2.5,1.1-4.8,2.9-6.4l1.6-1.4c3.5-3.1,6.6-6.7,9.2-10.7v-53.4
				c0-4.7,3.8-8.5,8.5-8.5l0,0c2.3,0,4.4,0.9,6,2.5c1.6,1.6,2.5,3.7,2.5,6v55.7c0,1.5-0.4,3-1.1,4.2c-3.4,5.9-7.6,11.2-12.6,15.7
				v60.3C1770.7,509.1,1766.8,513,1762.1,513z M1775.8,362c-3.6,0-6.5,2.9-6.5,6.5v53.9l-0.2,0.2c-2.7,4.3-5.9,8.1-9.7,11.4
				l-1.6,1.4c-1.4,1.2-2.2,3-2.2,4.9v64.1c0,3.6,2.9,6.5,6.5,6.5c3.6,0,6.5-2.9,6.5-6.5v-61.2l0.3-0.3c4.9-4.5,9.1-9.7,12.5-15.5
				c0.6-1,0.9-2.1,0.9-3.2v-55.7c0-1.7-0.7-3.4-1.9-4.6C1779.2,362.7,1777.6,362,1775.8,362L1775.8,362z"/>
		</g>
		<g>
			<path class="st0" d="M1702.1,333.6l-2.3,1.7l-2.3-1.7c-10.8-8-25.2-8.3-36.2-1.6v-24.6c0-12-8-22.2-19-25.4v-99.9
				c0-6.1,5-11.1,11.1-11.1s11.1,5,11.1,11.1v109.6c0,4.1,3.4,7.5,7.5,7.5s7.5-3.4,7.5-7.5V171.2c0-6.1,5-11.1,11.1-11.1
				s11.1,5,11.1,11.1v120.5c0,4.1,3.4,7.5,7.5,7.5c4.1,0,7.5-3.4,7.5-7.5v-94.4c0-6.1,5-11.1,11.1-11.1c1.6,0,3.1,0.3,4.6,1
				c3.8,1.7,8.2,0,9.9-3.8c1.7-3.8,0-8.2-3.8-9.9c-3.4-1.5-7-2.3-10.7-2.3c-4,0-7.7,0.9-11.1,2.5v-2.5c0-14.4-11.7-26.1-26.1-26.1
				c-10.4,0-19.3,6.1-23.5,14.8c-4-2.5-8.7-3.9-13.7-3.9c-14.4,0-26.1,11.7-26.1,26.1V282c-11,3.2-19,13.4-19,25.4v33.4
				c0,4.1,3.4,7.5,7.5,7.5c4.1,0,7.5-3.4,7.5-7.5v-33.4c0-6.4,5.2-11.5,11.5-11.5c6.3,0,11.5,5.2,11.5,11.5v46.8
				c-1.7,10.1,1.3,20.8,8.9,28.4l29.2,29.3c4.1,4.1,9.6,6.4,15.4,6.4c5.8,0,11.3-2.3,15.4-6.4l29.2-29.3c11.9-11.9,12.6-31.3,1.6-44
				C1735,325.7,1715.7,323.5,1702.1,333.6L1702.1,333.6z M1733.7,372l-29.2,29.3c-1.3,1.3-3,2-4.8,2s-3.5-0.7-4.8-2c0,0,0,0,0,0
				l-29.2-29.3c-6.4-6.4-6.8-16.8-0.9-23.7c3.4-4,8.3-6.1,13.3-6.1c3.6,0,7.3,1.1,10.3,3.4l5.8,4.3c3.3,2.4,7.7,2.4,11,0l5.8-4.3
				c7.3-5.4,17.7-4.2,23.6,2.7C1740.5,355.2,1740.1,365.6,1733.7,372z"/>
			<path class="st0" d="M1699.7,419.3c-6.1,0-11.8-2.4-16.1-6.7l-29.2-29.3c-7.6-7.6-11-18.5-9.2-29.2v-46.7
				c0-5.8-4.7-10.5-10.5-10.5s-10.5,4.7-10.5,10.5v33.4c0,4.7-3.8,8.5-8.5,8.5s-8.5-3.8-8.5-8.5v-33.4c0-11.9,7.8-22.5,19-26.2
				v-99.1c0-15,12.2-27.1,27.1-27.1c4.7,0,9.2,1.2,13.3,3.5c4.7-8.8,14-14.4,24-14.4c15,0,27.1,12.2,27.1,27.1v1
				c3.2-1.3,6.6-2,10.1-2c3.9,0,7.6,0.8,11.1,2.4c2.1,0.9,3.7,2.6,4.5,4.7s0.7,4.4-0.2,6.5c-0.9,2.1-2.6,3.7-4.7,4.5
				s-4.4,0.7-6.5-0.2c-1.3-0.6-2.7-0.9-4.1-0.9c-5.6,0-10.1,4.5-10.1,10.1v94.4c0,4.7-3.8,8.5-8.5,8.5c-4.7,0-8.5-3.8-8.5-8.5V171.2
				c0-5.6-4.5-10.1-10.1-10.1s-10.1,4.5-10.1,10.1v120.5c0,4.7-3.8,8.5-8.5,8.5c-4.7,0-8.5-3.8-8.5-8.5V182.1
				c0-5.6-4.5-10.1-10.1-10.1c-5.6,0-10.1,4.5-10.1,10.1v99.1c11.2,3.7,19,14.3,19,26.2v22.9c11.4-6.2,25.3-5.3,35.8,2.5l1.7,1.3
				l1.7-1.3c14-10.4,33.9-8.1,45.3,5.1c11.3,13.2,10.6,33.1-1.7,45.4l-29.2,29.3C1711.6,416.9,1705.8,419.3,1699.7,419.3z
				 M1634.7,294.9c6.9,0,12.5,5.6,12.5,12.5l0,46.9c-1.7,10.1,1.5,20.4,8.7,27.5l29.2,29.3c3.9,3.9,9.2,6.1,14.7,6.1
				s10.8-2.2,14.7-6.1l29.2-29.3c11.5-11.6,12.2-30.3,1.6-42.7c-10.7-12.4-29.4-14.5-42.6-4.8l-2.9,2.2l-2.9-2.2
				c-10.1-7.5-24.2-8.1-35.1-1.5l-1.5,0.9v-26.4c0-11.2-7.5-21.3-18.3-24.5l-0.7-0.2V182.1c0-6.7,5.4-12.1,12.1-12.1
				c6.7,0,12.1,5.4,12.1,12.1v109.6c0,3.6,2.9,6.5,6.5,6.5c3.6,0,6.5-2.9,6.5-6.5V171.2c0-6.7,5.4-12.1,12.1-12.1
				s12.1,5.4,12.1,12.1v120.5c0,3.6,2.9,6.5,6.5,6.5c3.6,0,6.5-2.9,6.5-6.5v-94.4c0-6.7,5.4-12.1,12.1-12.1c1.7,0,3.4,0.4,5,1.1
				c1.6,0.7,3.3,0.8,5,0.2c1.6-0.6,2.9-1.8,3.6-3.4c0.7-1.6,0.8-3.4,0.2-5c-0.6-1.6-1.8-2.9-3.4-3.6c-3.3-1.5-6.7-2.2-10.3-2.2
				c-3.7,0-7.3,0.8-10.7,2.4l-1.4,0.7v-4.1c0-13.8-11.3-25.1-25.1-25.1c-9.6,0-18.5,5.6-22.6,14.3l-0.5,1l-0.9-0.6
				c-4-2.4-8.5-3.7-13.1-3.7c-13.8,0-25.1,11.3-25.1,25.1v100.6l-0.7,0.2c-10.8,3.2-18.3,13.3-18.3,24.5v33.4c0,3.6,2.9,6.5,6.5,6.5
				s6.5-2.9,6.5-6.5v-33.4C1622.1,300.5,1627.8,294.9,1634.7,294.9z M1699.7,404.3c-2.1,0-4-0.8-5.5-2.3l-29.2-29.3
				c-6.7-6.8-7.2-17.8-0.9-25c3.5-4.1,8.6-6.4,14-6.4c4,0,7.8,1.2,10.9,3.6l5.8,4.3c2.9,2.2,6.8,2.2,9.8,0l5.8-4.3
				c7.7-5.7,18.7-4.5,24.9,2.8c6.2,7.3,5.8,18.2-0.9,25l-0.7-0.7l0.7,0.7l-29.2,29.3C1703.8,403.5,1701.8,404.3,1699.7,404.3z
				 M1678.1,343.3c-4.8,0-9.4,2.1-12.5,5.7c-5.6,6.5-5.2,16.3,0.8,22.3l29.2,29.3c1.1,1.1,2.5,1.7,4.1,1.7s3-0.6,4.1-1.7l29.2-29.3
				c6-6,6.4-15.8,0.8-22.3c-5.6-6.5-15.4-7.6-22.2-2.5l-5.8,4.3c-3.6,2.7-8.5,2.7-12.1,0l-5.8-4.3
				C1685,344.4,1681.7,343.3,1678.1,343.3z"/>
		</g>
	</g>
	<g>
		<g>
			<g>
				<g>
					<path class="st0" d="M143.3,316.9c-1.5-1.5-3.6-2.4-5.7-2.4c-2.1,0-4.2,0.9-5.7,2.4c-1.5,1.5-2.4,3.6-2.4,5.7
						c0,2.1,0.9,4.2,2.4,5.7c1.5,1.5,3.6,2.4,5.7,2.4c2.1,0,4.2-0.9,5.7-2.4c1.5-1.5,2.4-3.6,2.4-5.7
						C145.6,320.5,144.8,318.4,143.3,316.9z"/>
				</g>
			</g>
		</g>
		<g>
			<g>
				<g>
					<path class="st0" d="M413.3,324.2c0-16.3-11.5-30-26.7-33.4c3.6-5.4,5.7-11.9,5.7-18.9c0-18.9-15.4-34.2-34.2-34.2h-89.8
						l11.8-34.9c4.7-14.1,3.6-29.1-3.2-42.3c-6.8-13.2-18.4-22.9-32.6-27.2l-14.2-4.3c-4.1-1.3-8.5,0.9-9.9,5l-22.3,61.5
						c-6.3,17.5-18.8,32-35.1,40.8l-22.2,12.1c-4.8-6.5-12.5-10.7-21.2-10.7H8.1c-4.5,0-8.1,3.6-8.1,8.1v209.4
						c0,4.5,3.6,8.1,8.1,8.1h111.3c9.7,0,18.1-5.2,22.7-13l11.4,4.5c14.5,5.7,29.7,8.6,45.3,8.6h141.1c18.9,0,34.2-15.4,34.2-34.2
						c0-7.1-2.1-13.6-5.8-19.1c15-3.6,26.2-17.2,26.2-33.3c0-7.2-2.2-13.9-6-19.4C402.7,353.1,413.3,339.9,413.3,324.2z
						 M379.1,342.3h-18.9h-37.1h-27c-4.5,0-8.1,3.6-8.1,8.1s3.6,8.1,8.1,8.1h27h37.1c10,0,18.1,8.1,18.1,18.1
						c0,10-8.1,18.1-18.1,18.1h-20.3h-41H296c-4.5,0-8.1,3.6-8.1,8.1s3.6,8.1,8.1,8.1h2.7h41c10,0,18.1,8.1,18.1,18.1
						c0,10-8.1,18.1-18.1,18.1H198.8c-13.5,0-26.8-2.5-39.4-7.5l-13.7-5.4V355c0-4.5-3.6-8.1-8.1-8.1c-4.5,0-8.1,3.6-8.1,8.1v81.9
						c0,5.6-4.5,10.1-10.1,10.1H16.1V253.8h103.2c5.6,0,10.1,4.5,10.1,10.1v27.4c0,4.5,3.6,8.1,8.1,8.1c4.5,0,8.1-3.6,8.1-8.1V264
						l24.9-13.5c19.8-10.8,34.9-28.4,42.5-49.5l19.6-54.3l6.8,2.1c10,3,18.1,9.8,22.9,19.1c4.8,9.3,5.6,19.9,2.2,29.8l-15.3,45.5
						c-0.8,2.5-0.4,5.2,1.1,7.3c1.5,2.1,4,3.4,6.6,3.4h101.1c10,0,18.1,8.1,18.1,18.1c0,10-8.1,18.1-18.1,18.1h-62
						c-4.5,0-8.1,3.6-8.1,8.1s3.6,8.1,8.1,8.1h27c0,0,0,0,0,0h56c10,0,18.1,8.1,18.1,18.1C397.2,334.2,389.1,342.3,379.1,342.3z"/>
				</g>
			</g>
		</g>
		<g>
			<g>
				<g>
					<path class="st0" d="M88.1,385.3c-12.5,0-22.6,10.1-22.6,22.6s10.1,22.6,22.6,22.6s22.6-10.1,22.6-22.6
						C110.7,395.4,100.6,385.3,88.1,385.3z M88.1,414.3c-3.6,0-6.5-2.9-6.5-6.5c0-3.6,2.9-6.5,6.5-6.5c3.6,0,6.5,2.9,6.5,6.5
						C94.6,411.4,91.7,414.3,88.1,414.3z"/>
				</g>
			</g>
		</g>
		<g>
			<g>
				<g>
					<path class="st0" d="M246.9,52.2c-1.5-1.5-3.6-2.4-5.7-2.4c-2.1,0-4.2,0.9-5.7,2.4c-1.5,1.5-2.4,3.6-2.4,5.7
						c0,2.1,0.9,4.2,2.4,5.7c1.5,1.5,3.6,2.4,5.7,2.4c2.1,0,4.2-0.9,5.7-2.4c1.5-1.5,2.4-3.6,2.4-5.7
						C249.3,55.8,248.4,53.7,246.9,52.2z"/>
				</g>
			</g>
		</g>
		<g>
			<g>
				<g>
					<path class="st0" d="M241.2,80c-4.5,0-8.1,3.6-8.1,8.1v19.6c0,4.5,3.6,8.1,8.1,8.1c4.5,0,8.1-3.6,8.1-8.1V88
						C249.3,83.6,245.7,80,241.2,80z"/>
				</g>
			</g>
		</g>
		<g>
			<g>
				<g>
					<path class="st0" d="M347.2,155.8h-49.8c-4.5,0-8.1,3.6-8.1,8.1c0,4.5,3.6,8.1,8.1,8.1h49.8c4.5,0,8.1-3.6,8.1-8.1
						C355.2,159.4,351.6,155.8,347.2,155.8z"/>
				</g>
			</g>
		</g>
		<g>
			<g>
				<g>
					<path class="st0" d="M185,155.8h-49.8c-4.5,0-8.1,3.6-8.1,8.1c0,4.5,3.6,8.1,8.1,8.1H185c4.5,0,8.1-3.6,8.1-8.1
						C193.1,159.4,189.5,155.8,185,155.8z"/>
				</g>
			</g>
		</g>
		<g>
			<g>
				<g>
					<path class="st0" d="M201.3,112.5L177.8,89c-3.2-3.2-8.3-3.2-11.4,0c-3.2,3.2-3.2,8.3,0,11.4l23.5,23.5
						c1.6,1.6,3.6,2.4,5.7,2.4c2.1,0,4.1-0.8,5.7-2.4C204.4,120.8,204.4,115.6,201.3,112.5z"/>
				</g>
			</g>
		</g>
		<g>
			<g>
				<g>
					<path class="st0" d="M316.1,89c-3.2-3.2-8.3-3.2-11.4,0l-23.5,23.5c-3.2,3.2-3.2,8.3,0,11.4c1.6,1.6,3.6,2.4,5.7,2.4
						c2.1,0,4.1-0.8,5.7-2.4l23.5-23.5C319.2,97.3,319.2,92.2,316.1,89z"/>
				</g>
			</g>
		</g>
	</g>
	<g>
		<path class="st0" d="M1212.7,208.5c52.9,0,96-43.1,96-96s-43.1-96-96-96c-38.4,0-71.6,22.8-86.9,55.5l-25.7-9.5
			c0.3-2,0.6-3.9,0.6-6c0-22.1-17.9-40-40-40s-40,17.9-40,40s17.9,40,40,40c14.3,0,26.8-7.6,33.9-19l25.7,9.5
			c-2.3,8.1-3.6,16.7-3.6,25.5c0,10.5,1.7,20.5,4.9,30l-88,37.3c-16.1-30.5-48.1-51.3-84.9-51.3c-11.9,0-23.3,2.3-33.8,6.3
			l-22.1-46.5c9.6-7.3,16-18.8,16-31.8c0-22.1-17.9-40-40-40s-40,17.9-40,40s17.9,40,40,40c3.3,0,6.5-0.5,9.6-1.3l22.1,46.5
			c-28.5,16.7-47.7,47.5-47.7,82.8c0,33.2,16.9,62.5,42.6,79.7l-14.6,26.3c-3.8-1.2-7.8-2-12-2c-22.1,0-40,17.9-40,40s17.9,40,40,40
			s40-17.9,40-40c0-12.1-5.5-22.9-14.1-30.2l14.7-26.4c12,5.4,25.3,8.6,39.4,8.6c22,0,42.1-7.5,58.3-19.9l31.5,34.6
			c-16,17.2-25.8,40.1-25.8,65.3c0,4.9,0.5,9.7,1.2,14.4l-37,8.8c-6.4-13.6-20.1-23.2-36.1-23.2c-22.1,0-40,17.9-40,40
			s17.9,40,40,40s40-17.9,40-40c0-0.4-0.1-0.9-0.1-1.3l37-8.8c12.6,38.3,48.7,66.1,91.2,66.1c52.9,0,96-43.1,96-96
			c0-16.4-4.2-31.9-11.4-45.4l47-30.6c7.3,7.4,17.3,11.9,28.5,11.9c22.1,0,40-17.9,40-40s-17.9-40-40-40s-40,17.9-40,40
			c0,5.2,1.1,10.1,2.9,14.6l-47.1,30.6c-9.4-12.1-21.7-21.9-35.8-28.4l39-108.2C1195.8,207.2,1204.1,208.5,1212.7,208.5z
			 M1060.7,80.5c-13.2,0-24-10.8-24-24s10.8-24,24-24s24,10.8,24,24S1074,80.5,1060.7,80.5z M844.7,56.5c0-13.2,10.8-24,24-24
			s24,10.8,24,24s-10.8,24-24,24S844.7,69.7,844.7,56.5z M868.7,392.5c-13.2,0-24-10.8-24-24s10.8-24,24-24s24,10.8,24,24
			S882,392.5,868.7,392.5z M940.7,464.5c-13.2,0-24-10.8-24-24s10.8-24,24-24s24,10.8,24,24S954,464.5,940.7,464.5z M1268.7,272.5
			c13.2,0,24,10.8,24,24s-10.8,24-24,24s-24-10.8-24-24S1255.5,272.5,1268.7,272.5z M1165.6,177c3.6-18.5,19.9-32.5,39.1-32.5h16
			c19.2,0,35.5,14,39.1,32.5c-13.2,9.7-29.5,15.5-47.1,15.5S1178.9,186.7,1165.6,177z M1212.7,128.5c-13.2,0-24-10.8-24-24
			s10.8-24,24-24s24,10.8,24,24S1226,128.5,1212.7,128.5z M1212.7,32.5c44.1,0,80,35.9,80,80c0,20-7.4,38.3-19.6,52.3
			c-5.6-14.8-17.3-26.5-31.9-32.4c7.1-7.2,11.5-17.1,11.5-28c0-22.1-17.9-40-40-40s-40,17.9-40,40c0,10.9,4.4,20.7,11.5,28
			c-14.6,5.8-26.2,17.6-31.9,32.4c-12.2-14-19.6-32.3-19.6-52.3C1132.7,68.4,1168.6,32.5,1212.7,32.5z M868.7,224.5
			c0-44.1,35.9-80,80-80s80,35.9,80,80c0,20.1-7.5,38.4-19.7,52.4c-5.6-14.8-17.3-26.7-31.9-32.5c7.1-7.2,11.5-17.1,11.5-28
			c0-22.1-17.9-40-40-40s-40,17.9-40,40c0,10.9,4.4,20.7,11.5,28c-14.5,5.8-26.2,17.5-31.8,32.2
			C876.1,262.6,868.7,244.4,868.7,224.5z M924.6,216.5c0-13.2,10.8-24,24-24s24,10.8,24,24s-10.8,24-24,24S924.6,229.7,924.6,216.5z
			 M901.5,288.9c3.6-18.5,19.9-32.4,39.1-32.4h16c19.3,0,35.6,14.1,39.1,32.6c-13.2,9.6-29.4,15.4-47,15.4
			C931.1,304.5,914.8,298.6,901.5,288.9z M1061.5,464.9c3.6-18.5,19.9-32.4,39.1-32.4h16c19.3,0,35.6,14.1,39.1,32.6
			c-13.2,9.6-29.4,15.4-47,15.4C1091.1,480.5,1074.8,474.6,1061.5,464.9z M1108.6,416.5c-13.2,0-24-10.8-24-24s10.8-24,24-24
			s24,10.8,24,24S1121.8,416.5,1108.6,416.5z M1188.7,400.5c0,20.1-7.5,38.4-19.7,52.4c-5.6-14.8-17.3-26.7-31.9-32.5
			c7.1-7.2,11.5-17.1,11.5-28c0-22.1-17.9-40-40-40s-40,17.9-40,40c0,10.9,4.4,20.7,11.5,28c-14.5,5.8-26.2,17.5-31.8,32.2
			c-12.1-14-19.5-32.2-19.5-52.2c0-44.1,35.9-80,80-80S1188.7,356.4,1188.7,400.5z M1133.7,307.9c-8-2.1-16.3-3.4-25-3.4
			c-22,0-42.1,7.5-58.3,19.9l-31.5-34.6c16-17.2,25.8-40.1,25.8-65.3c0-10.5-1.7-20.5-4.9-30l88-37.3c9.9,18.6,25.7,33.6,44.9,42.4
			L1133.7,307.9z"/>
	</g>
</g>
</svg>
