<?xml version="1.0" encoding="utf-8"?>
<!-- Generator: Adobe Illustrator 23.0.6, SVG Export Plug-In . SVG Version: 6.00 Build 0)  -->
<svg version="1.1" id="Layer_3" xmlns="http://www.w3.org/2000/svg" xmlns:xlink="http://www.w3.org/1999/xlink" x="0px" y="0px"
	 viewBox="0 0 1770.9 486" style="enable-background:new 0 0 1770.9 486;" xml:space="preserve">
<style type="text/css">
	.st0{fill:#1006A1;}
</style>
<g>
	<g>
		<g>
			<path class="st0" d="M41.7,377c-4.6,0-8.3,3.7-8.3,8.3v0c0,4.6,3.7,8.3,8.3,8.3s8.3-3.7,8.3-8.3C50,380.7,46.3,377,41.7,377z"/>
		</g>
		<g>
			<path class="st0" d="M418.7,0h-66.7c-4.6,0-8.3,3.7-8.3,8.3V17L332.5,17c0,0,0,0-0.1,0c-4.6,0-8.3,3.7-8.3,8.3
				c0,4.6,3.7,8.4,8.3,8.4l11.2,0.1v86.5c-21.8,13.8-41.5,5.8-62.4-2.5c-13.7-5.5-27.9-11.2-42-9.5c-4.5,0.6-16.5,2.3-29.3,4.2
				c-12.1,1.8-24.6,3.6-28.9,4.1c-2.2,0.3-4.4-0.3-6.1-1.7c-1.8-1.4-3-3.4-3.2-5.7c-0.2-1.5-0.7-5.4,9.8-10.3
				c22.1-10.3,45.7-19,64.7-24.1c4.5-1.2,7.1-5.8,5.9-10.2c-1.2-4.5-5.7-7.1-10.2-5.9c-19.9,5.3-44.5,14.4-67.4,25.1
				c-8,3.7-12.9,8-15.8,12.4l-83.6,22.8c-8.8,2.2-13.3-1.3-14.6-5.3c-1.3-4,0.3-9.1,6.6-11.5c6.5-2.5,22.2-9.4,41.9-18.1
				c26.2-11.5,58.8-25.9,84.8-36.4C224.6,35,234,33.1,265.7,33.2h0c4.6,0,8.3-3.7,8.3-8.3c0-4.6-3.7-8.4-8.3-8.4
				c-33.7-0.1-45.4,2.2-78.3,15.5c-26.2,10.6-58.9,25-85.2,36.6C83.4,77,67.2,84.1,61,86.5c0,0-0.1,0-0.1,0
				c-15.6,6.1-20,20.8-16.4,32.2c3.6,11.2,16,21.1,34.6,16.4c0,0,0.1,0,0.1,0l76.3-20.8c1.4,5.5,4.5,10.3,9,13.8
				c5.3,4.1,11.9,5.9,18.5,5.1c4.5-0.6,16.5-2.3,29.2-4.2c12.1-1.8,24.6-3.6,28.9-4.1c9.9-1.2,21.5,3.4,33.7,8.4
				c13,5.2,27.8,11.2,43.9,11.2c8,0,16.2-1.5,24.7-5.3v2.6c0,4.6,3.7,8.3,8.3,8.3h66.7c4.6,0,8.3-3.7,8.3-8.3V8.3
				C427,3.7,423.3,0,418.7,0z M410.3,133.4h-50V25.5v0c0,0,0,0,0,0v-8.8h50V133.4z"/>
		</g>
		<g>
			<path class="st0" d="M155.1,271.9c19.8,0,37.3-9.9,47.9-25h30.8c2.2,0,4.3-0.9,5.9-2.4l14.2-14.2h9.8l14.2,14.2
				c1.6,1.6,3.7,2.4,5.9,2.4h13.1c2.2,0,4.3-0.9,5.9-2.4l25-25c1.6-1.6,2.4-3.7,2.4-5.9v-25c0-4.6-3.7-8.3-8.3-8.3H203
				c-10.6-15.1-28.1-25-47.9-25c-32.2,0-58.4,26.2-58.4,58.4S122.9,271.9,155.1,271.9z M313.6,196.8V210l-20.1,20.1h-6.2l-14.2-14.2
				c-1.6-1.6-3.7-2.4-5.9-2.4h-16.7c-2.2,0-4.3,0.9-5.9,2.4l-14.2,14.2h-19.3c1.6-5.3,2.4-10.9,2.4-16.7c0-5.8-0.9-11.4-2.4-16.7
				H313.6z M155.1,171.8c23,0,41.7,18.7,41.7,41.7s-18.7,41.7-41.7,41.7s-41.7-18.7-41.7-41.7S132.1,171.8,155.1,171.8z"/>
		</g>
		<g>
			<path class="st0" d="M138.4,221.8c4.6,0,8.3-3.7,8.3-8.3s-3.7-8.3-8.3-8.3s-8.3,3.7-8.3,8.3v0
				C130.1,218.1,133.8,221.8,138.4,221.8z"/>
		</g>
		<g>
			<path class="st0" d="M299.1,33.4L299.1,33.4c4.6,0,8.3-3.7,8.3-8.3c0-4.6-3.7-8.3-8.3-8.3c-4.6,0-8.3,3.7-8.3,8.3
				C290.7,29.7,294.5,33.4,299.1,33.4z"/>
		</g>
		<g>
			<path class="st0" d="M347.8,292c0,0-0.1,0-0.1,0l-76.3,20.8c-1.4-5.5-4.5-10.3-9-13.8c-5.3-4.1-11.9-5.9-18.5-5.1
				c-4.5,0.6-16.5,2.3-29.2,4.2c-12.1,1.8-24.6,3.6-28.9,4.1c-9.9,1.2-21.5-3.4-33.7-8.4c-19.5-7.8-43-17.3-68.6-6v-2.6
				c0-4.6-3.7-8.3-8.3-8.3H8.3c-4.6,0-8.3,3.7-8.3,8.3v133.4c0,4.6,3.7,8.3,8.3,8.3h66.7c4.6,0,8.3-3.7,8.3-8.3V410l11.1,0.1h0.1
				c4.6,0,8.3-3.7,8.3-8.3c0-4.6-3.7-8.4-8.3-8.4l-11.2-0.1v-86.5c21.8-13.8,41.5-5.8,62.4,2.5c13.7,5.5,27.9,11.2,42,9.5
				c4.5-0.6,16.5-2.3,29.3-4.2c12.1-1.8,24.6-3.6,28.9-4.1c2.2-0.3,4.4,0.3,6.1,1.7c1.8,1.4,3,3.4,3.2,5.7c0.2,1.5,0.7,5.4-9.8,10.2
				c-22.1,10.3-45.7,19-64.7,24.1c-4.5,1.2-7.1,5.8-5.9,10.2c1.2,4.5,5.8,7.1,10.2,5.9c19.9-5.3,44.5-14.4,67.4-25.1
				c8-3.7,12.9-8,15.8-12.4l83.6-22.8c8.8-2.2,13.3,1.3,14.6,5.3c1.3,4-0.3,9.1-6.6,11.5c-6.5,2.5-22.2,9.4-41.9,18.1
				c-26.2,11.5-58.8,25.9-84.8,36.4c-30.9,12.5-40.3,14.4-71.9,14.3c0,0,0,0,0,0c-4.6,0-8.3,3.7-8.3,8.3c0,4.6,3.7,8.4,8.3,8.4
				c0.7,0,1.4,0,2,0c32.2,0,44.1-2.5,76.2-15.5c26.2-10.6,58.9-25,85.2-36.6c18.8-8.3,35.1-15.4,41.2-17.8c0,0,0.1,0,0.1,0
				c15.6-6.1,20-20.8,16.4-32.2C378.8,297.1,366.4,287.2,347.8,292z M16.7,410.3V293.6h50v107.9v0v8.8H16.7z"/>
		</g>
		<g>
			<path class="st0" d="M127.9,393.6L127.9,393.6c-4.6,0-8.3,3.7-8.3,8.3c0,4.6,3.7,8.3,8.3,8.3c4.6,0,8.3-3.7,8.3-8.3
				C136.3,397.3,132.5,393.6,127.9,393.6z"/>
		</g>
	</g>
	<g id="Outline">
		<g>
			<path class="st0" d="M809.8,198h176v168h16V190c0-4.4-3.6-8-8-8h-192c-4.4,0-8,3.6-8,8v136h16V198z"/>
		</g>
		<g>
			<path class="st0" d="M953.8,286h-16v-24c0-4.4-3.6-8-8-8h-24v-24c0-4.4-3.6-8-8-8h-32c-4.4,0-8,3.6-8,8v56h-16v16h112V286z
				 M921.8,270v16h-16v-16H921.8z M873.8,238h16v48h-16V238z"/>
		</g>
		<g>
			<path class="st0" d="M1031.8,374.8c-7.2-3-15.3-3-22.4,0l-51.7,22c1.6-15.4-9.6-29.1-25-30.7c-0.9-0.1-1.9-0.1-2.9-0.1h-62.1
				c-6.3,0-12.5-1.5-18.1-4.3c-26-12.9-54.6-19.7-83.6-19.7h-20.3c0-4.4-3.6-8-8-8h-48v16h40v96h-40v16h48c4.4,0,8-3.6,8-8v-3
				l59.7,24.8c32.6,13.3,69,13.7,101.8,1.1l123.6-47.1c7.3-2.8,13.2-8.4,16.3-15.6c3.2-7.3,3.4-15.6,0.5-23
				C1044.9,383.8,1039.1,377.9,1031.8,374.8z M1032.6,407.7c-1.4,3.3-4.1,5.8-7.4,7.1l-123.6,47.1c-29,11.1-61.2,10.8-90-1
				l-65.8-27.3V358h20.3c26.5,0,52.7,6.2,76.4,18c7.8,3.9,16.5,5.9,25.2,6h62.1c6.6,0,12,5.4,12,12c0,6.4-5.1,11.7-11.5,12
				c-0.3,0-0.6,0-1,0h-95.5v16h95.5c0.2,0,0.3,0,0.5,0v0c0.6,0,1.1,0,1.7-0.1c5.9-0.2,11.8-1.6,17.3-3.9l66.9-28.4
				c3.2-1.4,6.8-1.4,10,0c3.3,1.4,5.9,4.1,7.2,7.4C1034.2,400.5,1034.1,404.3,1032.6,407.7z"/>
		</g>
		<g>
			<path class="st0" d="M1159.4,186.7l-53.6-87V72.6l22.4-29.9c1-1.4,1.6-3.1,1.6-4.8c0-18.1-14.7-32.7-32.7-32.7
				c-5.1,0-10.1,1.2-14.6,3.5L1057.8,21l-24.6-12.3c-16.2-8.1-35.8-1.5-43.9,14.6c-2.3,4.5-3.5,9.6-3.5,14.6c0,1.7,0.6,3.4,1.6,4.8
				l22.4,29.9v27.1L971,162.8l13.6,8.4l37.7-61.2h71.1l52.4,85.2c15.7,25.6,7.8,59-17.8,74.8c-8.6,5.3-18.4,8.1-28.5,8.1h-81.6v16
				h81.6c38.9,0,70.4-31.5,70.4-70.4C1169.8,210.6,1166.2,197.8,1159.4,186.7L1159.4,186.7z M1009.7,23.7c4.9-3.1,11.1-3.3,16.3-0.7
				l28.2,14.1c2.3,1.1,4.9,1.1,7.2,0l28.2-14.1c8.3-4.1,18.3-0.8,22.4,7.5c0.8,1.6,1.3,3.3,1.6,5L1093.8,62h-72L1002,35.5
				C1002.7,30.6,1005.5,26.3,1009.7,23.7L1009.7,23.7z M1089.8,94h-64V78h64V94z"/>
		</g>
		<g>
			<path class="st0" d="M1033.8,214v1.2c0,10,6.5,18.8,16,21.8v9h16v-9c12-3.8,18.7-16.6,15-28.6c-1.9-5.9-6-10.8-11.6-13.6
				l-15.6-7.8c-3.4-1.7-4.7-5.8-3.1-9.2c1.2-2.3,3.5-3.8,6.1-3.8h2.3c3.8,0,6.8,3.1,6.8,6.8v1.2h16v-1.2c0-10-6.5-18.8-16-21.8v-9
				h-16v9c-12,3.8-18.7,16.6-15,28.6c1.9,5.9,6,10.8,11.6,13.6l15.6,7.8c3.4,1.7,4.7,5.8,3.1,9.2c-1.2,2.3-3.5,3.8-6.1,3.8h-2.3
				c-3.8,0-6.8-3.1-6.8-6.8V214H1033.8z"/>
		</g>
		<g>
			<rect x="1097.8" y="190" class="st0" width="16" height="16"/>
		</g>
		<g>
			<rect x="833.8" y="326" class="st0" width="16" height="16"/>
		</g>
		<g>
			<rect x="865.8" y="326" class="st0" width="96" height="16"/>
		</g>
		<g>
			<path class="st0" d="M948.8,50.7L939,80.2l15.2,5.1l15.2-45.5c1.4-4.2-0.9-8.7-5.1-10.1c0,0,0,0,0,0l-45.5-15.2l-5.1,15.2
				l24.8,8.3c-39.7,18.8-70.6,52.2-86.2,93.3l15,5.6C881.9,98.3,911.2,67.3,948.8,50.7z"/>
		</g>
		<g>
			<path class="st0" d="M862.6,152l-15.5-4c-1.4,5.5-2.6,11.1-3.4,16.8l15.8,2.4C860.3,162,861.3,157,862.6,152z"/>
		</g>
		<g>
			<path class="st0" d="M1016.2,338.9l3.2,15.7c28.8-5.9,55.5-19.2,77.5-38.6l-10.6-12C1066.4,321.6,1042.2,333.6,1016.2,338.9z"/>
		</g>
	</g>
	<g>
		<rect x="560.7" y="205.6" class="st0" width="159.6" height="13"/>
	</g>
	<g>
		<rect x="1322.9" y="205.6" class="st0" width="159.6" height="13"/>
	</g>
	<g>
		<path class="st0" d="M1672.1,177.9c2.6,3.6,5.1,6.8,7.3,10.2c1.9,2.9,1.7,3,4.8,1.5c15.7-7.5,33.8-0.5,40.3,15.8
			c1.5,3.9,2.4,7.8,2.4,12c0,0.6,0.1,1.2,0.1,1.5c3.9-1,7.7-2.2,11.5-2.7c7.8-1,14.6,1.6,20.8,6.3c6,4.6,9,11,10.9,18
			c0.6,2.2,0.5,4.7,0.5,7.1c0,35.6,0,71.3,0,106.9c0,6.9-0.1,13.8-0.3,20.7c-0.3,8.2-2.1,16.1-5,23.8c-4.8,12.6-12.2,23.4-22.3,32.3
			c-9.2,8.1-19.7,13.8-31.4,17.1c-7.2,2-14.6,2.9-22.1,2.9c-26.3-0.1-52.6,0-78.8-0.1c-18.4-0.1-33.7-7.3-46.6-20.2
			c-3.6-3.7-7.4-7.2-11.1-10.8c-19.6-19.7-39.1-39.4-58.6-59.2c-3.5-3.5-7-7-10.5-10.5c-6.9-7-9.7-15.6-8.4-25.2
			c1.5-11.1,9.8-21.1,21-24.1c11.7-3.1,21.6,0.1,30,8.4c13.8,13.6,27.4,27.4,41.1,41.1c2.6,2.7,5.6,2.7,7.8,1.8
			c3-1.2,4.4-3.6,4.4-6.9c0-48.7,0-97.4,0-146.1c0-1.6-0.4-2.3-2-2.8c-16.8-5.7-30.9-15.5-42.4-29c-7.7-9.1-13.5-19.4-17.4-30.7
			c-2.2-6.5-3.9-13.1-4.3-19.9c-0.2-3.8-0.7-7.6-0.7-11.5c-0.1-12.1,2.4-23.7,6.9-35c5.2-13,12.9-24.3,23.1-33.9
			c10.1-9.5,21.8-16.5,34.9-21.1c12.5-4.4,25.4-5.7,38.5-4.8c10.2,0.7,20,3.3,29.4,7.3c13.3,5.6,24.6,13.8,34.2,24.5
			c9.4,10.6,16.1,22.7,20.3,36.3c4.2,13.7,5.1,27.7,3,41.8c-3.4,22.2-13.6,41-30.2,56.2C1672.9,177.3,1672.3,177.7,1672.1,177.9z
			 M1595.5,229c0,38.6,0,77.2,0,115.7c0,4.1-0.7,8.2-2.8,11.9c-7.7,13.5-24.8,15.7-35.7,4.7c-13.5-13.5-26.9-27.2-40.4-40.7
			c-4.8-4.8-10.4-6.8-17.1-4.4c-4.9,1.8-9.5,8.6-8.9,13.7c0.4,4,2,7.5,4.9,10.4c14.5,14.5,29,29,43.5,43.6
			c10,10.1,20,20.2,30.2,30.2c4.7,4.6,9.4,9.4,14.7,13.3c8.3,6.1,17.9,8.7,28.3,8.6c24.9-0.1,49.8,0,74.6-0.1c4.7,0,9.3-0.4,14-0.8
			c5.6-0.5,10.9-2.3,16-4.6c11.2-5.1,20.4-12.7,27.4-22.9c5.1-7.4,8.6-15.6,10.3-24.4c1.2-6.4,1.4-12.9,1.4-19.4
			c-0.1-38.7,0-77.4-0.2-116.2c0-3.1-1-6.4-2.4-9.1c-2.6-5.1-7.3-7.9-13-7.4c-7.8,0.7-13.3,6.6-13.3,14.6c0,2.4,0,4.9,0,7.3
			c0,5.2-6.1,9-10.2,7c-3-1.5-5-3.9-5-7.4c0-11.6,0-23.2,0-34.8c0-3.3-0.8-6.2-2.5-8.9c-3.6-6.1-10.2-8.7-17.3-6
			c-5.5,2.1-8.9,7.2-8.9,13.2c-0.2,12.4-0.2,24.7,0,37.1c0.1,4.7-6,8.6-9.7,6.9c-3.7-1.7-5.6-3.9-5.6-8.1c0-16,0-32-0.1-48
			c0-2.6-0.4-5.3-1.3-7.7c-2-5.4-6.1-8.6-11.7-9.2c-4.9-0.5-9.1,1.5-12.3,5.4c-2.5,3.1-3.4,6.7-3.4,10.5c-0.1,13.1,0,26.1,0,39.2
			c0,4,0.1,8-0.1,11.9c-0.2,4.2-5.2,7.5-9.1,6.1c-4.1-1.5-5.7-3.7-5.8-8.1c0-10,0-20,0-29.9c0-34.5,0-68.9-0.1-103.4
			c0-4.3-0.2-8.7-2.5-12.7c-4.2-7.3-13.5-9.4-20.5-4c-3.9,3-5.5,7.1-5.5,12C1595.6,152.4,1595.5,190.7,1595.5,229z M1639,175.6
			c5.2-2.6,10.2-3.8,15.4-3.9c0.8,0,1.6-0.4,2.2-0.9c6.5-4.7,12.1-10.3,16.9-16.7c8.5-11.3,13.6-24.1,15.4-38
			c1.5-11.7,0.4-23.2-3.2-34.5c-3.3-10.4-8.6-19.8-15.7-28c-13.8-15.9-31.3-25-52.1-27.5c-6.6-0.8-13.4-0.1-20,0.5
			c-8.8,0.7-17.1,3.7-25,7.5c-8.1,3.9-15.1,9.3-21.5,15.6c-5.2,5.1-9.2,11.2-12.8,17.5c-4.6,8.1-7.7,16.7-9,25.9
			c-1.4,9.5-1.4,19,0.5,28.5c1.3,6.4,3.1,12.6,5.9,18.4c7.9,16.5,19.9,29.1,36.1,37.6c2.4,1.3,5,2.3,7.5,3.5
			c0.2-0.6,0.4-0.8,0.4-0.9c0-7.2,0.1-14.4,0-21.6c0-0.6-0.6-1.4-1.2-1.7c-5.6-3.4-10.7-7.6-14.9-12.7c-11.4-14-16-29.9-13.1-47.8
			c1.5-9.6,5.4-18.4,11.4-26.1c9.7-12.5,22.5-20,38-22.5c9.9-1.6,19.7-0.5,29.2,3.1c13.3,5,23.5,13.6,30.7,25.8
			c5.9,10,8.3,20.8,7.8,32.4c-0.3,8.1-2.4,15.8-5.9,23.1c-4.9,9.9-12,17.9-21.3,23.8c-1.2,0.7-1.7,1.6-1.7,3.1c0.1,4.4,0,8.8,0,13.2
			C1639,173.2,1639,174.2,1639,175.6z M1639,137.5c9.3-7.5,17.3-24.2,12.2-43c-5.2-19-21.1-30.6-38.6-31.9
			c-22.8-1.7-41.2,13.2-46.5,34.4c-3.3,13.1,3.7,35.5,14,41.6c0-0.8,0-1.5,0-2.1c0-6.9,0.1-13.8,0-20.7c-0.1-4.4,0.4-8.8,2.1-12.9
			c4.2-10.3,11.9-16.4,22.7-18.5c5.5-1.1,10.9-0.2,16.1,2c9.5,4.1,17.7,14.7,17.9,25.8c0.1,7.7,0.1,15.4,0.1,23.1
			C1639,135.8,1639,136.5,1639,137.5z"/>
	</g>
</g>
</svg>
