<?xml version="1.0" encoding="utf-8"?>
<!-- Generator: Adobe Illustrator 23.0.6, SVG Export Plug-In . SVG Version: 6.00 Build 0)  -->
<svg version="1.1" id="Capa_1" xmlns="http://www.w3.org/2000/svg" xmlns:xlink="http://www.w3.org/1999/xlink" x="0px" y="0px"
	 viewBox="0 0 512 512" style="enable-background:new 0 0 512 512;" xml:space="preserve">
<style type="text/css">
	.st0{fill:#1006A1;}
</style>
<g>
	<path class="st0" d="M30.9,331.4c0,49.9,40.6,90.6,90.6,90.6c49.9,0,90.6-40.6,90.6-90.6s-40.6-90.6-90.6-90.6
		C71.5,240.8,30.9,281.4,30.9,331.4L30.9,331.4z M197.1,331.4c0,41.7-33.9,75.6-75.6,75.6S45.9,373,45.9,331.4s33.9-75.6,75.6-75.6
		S197.1,289.7,197.1,331.4L197.1,331.4z"/>
	<path class="st0" d="M494.8,269.1c0,0,0-0.1,0-0.1l-60.7-125.8c-8.4-17.4-22.3-31.2-39-39.7l-5.7-11.9
		c-9.5-19.8-29.9-32.5-51.8-32.5c-31.7,0-57.5,25.8-57.5,57.5v22.1c-5,9-8.5,19.1-10,29.7h-27.9c-1.5-10.6-5-20.7-10-29.7v-22.1
		c0-31.7-25.8-57.5-57.5-57.5c-21.9,0-42.3,12.8-51.8,32.5l-5.7,11.9c-16.7,8.5-30.6,22.3-39,39.7L67.4,165c-1.8,3.7-0.2,8.2,3.5,10
		c3.7,1.8,8.2,0.2,10-3.5l10.5-21.8c11.9-24.7,37.3-40.7,64.7-40.7c39.6,0,71.9,32.2,71.9,71.9v92c-7-12.8-16.4-24.4-27.9-34.2
		c-3.1-2.7-7.9-2.3-10.5,0.9c-2.7,3.1-2.3,7.9,0.9,10.5c23.9,20.3,37.6,49.9,37.6,81.2c0,58.7-47.8,106.5-106.5,106.5
		S15,390.1,15,331.4s47.8-106.5,106.5-106.5c15.3,0,30,3.2,43.8,9.4c3.8,1.7,8.2,0,9.9-3.7c1.7-3.8,0-8.2-3.7-9.9
		c-15.7-7.1-32.6-10.7-50-10.7c-25.9,0-50,8.2-69.8,22.1L67,200.3c1.8-3.7,0.2-8.2-3.5-10c-3.7-1.8-8.2-0.2-10,3.5L17.2,269
		c0,0,0,0.1,0,0.1C6.3,287.3,0,308.6,0,331.4c0,67,54.5,121.5,121.5,121.5c66.1,0,120.1-53.1,121.4-119h26.1
		c1.4,65.8,55.3,119,121.4,119c67,0,121.5-54.5,121.5-121.5C512,308.6,505.7,287.3,494.8,269.1L494.8,269.1z M420.6,149.7l39.7,82.2
		c-19.8-13.9-43.8-22.1-69.8-22.1c-45.9,0-85.8,25.5-106.5,63.1V181c0-39.6,32.2-71.9,71.9-71.9C383.3,109.1,408.7,125,420.6,149.7z
		 M269,318.9H243V183.5H269V318.9z M337.5,74.1c15.5,0,29.9,8.6,37.3,22.1c-6.2-1.4-12.5-2.1-19-2.1c-23.7,0-45.2,9.6-60.9,25v-2.4
		C294.9,93.2,314,74.1,337.5,74.1L337.5,74.1z M156.1,94.1c-6.5,0-12.8,0.7-19,2.1c7.4-13.5,21.8-22.1,37.3-22.1
		c23.5,0,42.6,19.1,42.6,42.6v2.4C201.4,103.7,179.8,94.1,156.1,94.1z M390.5,437.9c-58.7,0-106.5-47.8-106.5-106.5
		s47.8-106.5,106.5-106.5S497,272.6,497,331.4S449.3,437.9,390.5,437.9L390.5,437.9z"/>
	<path class="st0" d="M424.5,247.4c-3.8-1.6-8.2,0.3-9.7,4.1c-1.6,3.8,0.3,8.2,4.1,9.7c28.7,11.7,47.3,39.2,47.3,70.1
		c0,41.7-33.9,75.6-75.6,75.6s-75.6-33.9-75.6-75.6c0-41.6,33.8-75.5,75.5-75.6c4.1,0,7.5-3.4,7.5-7.5c0-4.1-3.4-7.5-7.5-7.5
		c0,0,0,0,0,0c-49.8,0.1-90.4,40.7-90.4,90.6c0,49.9,40.6,90.6,90.6,90.6c49.9,0,90.6-40.6,90.6-90.6
		C481.1,294.3,458.9,261.4,424.5,247.4L424.5,247.4z"/>
</g>
</svg>
