<?xml version="1.0" encoding="utf-8"?>
<!-- Generator: Adobe Illustrator 23.0.6, SVG Export Plug-In . SVG Version: 6.00 Build 0)  -->
<svg version="1.1" id="Layer_3" xmlns="http://www.w3.org/2000/svg" xmlns:xlink="http://www.w3.org/1999/xlink" x="0px" y="0px"
	 viewBox="0 0 2156.1 530" style="enable-background:new 0 0 2156.1 530;" xml:space="preserve">
<style type="text/css">
	.st0{fill:#1006A1;}
</style>
<g>
	<rect x="598.6" y="267.5" class="st0" width="159.6" height="13"/>
</g>
<g>
	<rect x="1426" y="267.5" class="st0" width="159.6" height="13"/>
</g>
<g>
	<g>
		<path class="st0" d="M418.2,293.1l-41.1,41.1c-0.5-0.7-1.1-1.3-1.7-1.9l-53.1-53.1c-2.9-2.9-7.7-2.9-10.6,0s-2.9,7.7,0,10.6
			l53.1,53.1c4.6,4.6,4.6,12,0,16.6c-4.6,4.6-12,4.6-16.6,0L318.7,330c-2.9-2.9-7.7-2.9-10.6,0c-2.9,2.9-2.9,7.7,0,10.6l29.5,29.5
			c0,0,0,0,0,0c2.2,2.2,3.4,5.1,3.4,8.3c0,3.1-1.2,6.1-3.4,8.3c-2.2,2.2-5.1,3.4-8.3,3.4c-3.1,0-6.1-1.2-8.3-3.4l-29.5-29.5
			c-2.9-2.9-7.7-2.9-10.6,0c-2.9,2.9-2.9,7.7,0,10.6l29.5,29.5c4.6,4.6,4.6,12,0,16.6c-2.2,2.2-5.2,3.4-8.3,3.4
			c-3.1,0-6.1-1.2-8.3-3.4l-29.5-29.5c-2.9-2.9-7.7-2.9-10.6,0c-2.9,2.9-2.9,7.7,0,10.6l29.5,29.5c4.6,4.6,4.6,12,0,16.6
			c-2.2,2.2-5.1,3.4-8.3,3.4s-6.1-1.2-8.3-3.4l-19.1-19.1c6.1-10.1,4.8-23.5-4-32.3l-0.5-0.5c-5.8-5.8-13.7-8.3-21.3-7.6
			c-0.4-6.4-3.1-12.3-7.7-16.9c-3.5-3.5-7.8-5.8-12.3-7c1.2-3,1.8-6.2,1.8-9.5c0-7.1-2.7-13.7-7.7-18.7c-5-5-11.6-7.7-18.7-7.7
			c-4,0-7.9,0.9-11.4,2.6c-1.2-4.2-3.4-8.2-6.7-11.5c-10.3-10.3-27.1-10.3-37.4,0l-3.1,3.1l-2.3-2.3c-3.6-3.6-5.6-8.5-5.6-13.6
			v-19.6c0-2-0.8-3.9-2.2-5.3l-32.1-32.1l9-9c2.9-2.9,2.9-7.7,0-10.6c-2.9-2.9-7.7-2.9-10.6,0l-12.1,12.1c-2.3,2.3-6,2.3-8.3,0
			L15.7,197c-2.9-2.9-7.7-2.9-10.6,0c-2.9,2.9-2.9,7.7,0,10.6l38.7,38.7c4.1,4.1,9.4,6.1,14.8,6.1c1.7,0,3.4-0.2,5.1-0.6l32,32v16.5
			c0,9.2,3.6,17.8,10,24.2l2.3,2.3l-2.5,2.5c-5,5-7.7,11.6-7.7,18.7c0,7.1,2.7,13.7,7.7,18.7c5.2,5.1,11.9,7.7,18.7,7.7
			c0.1,0,0.2,0,0.3,0c0,0.1,0,0.2,0,0.3c0,7.1,2.7,13.7,7.7,18.7c5,5,11.6,7.7,18.7,7.7c0.1,0,0.2,0,0.3,0c-0.1,6.9,2.5,13.8,7.7,19
			c5.2,5.1,11.9,7.7,18.7,7.7c0.1,0,0.2,0,0.3,0c-0.1,6.9,2.5,13.8,7.7,19l0.5,0.5c5,5,11.6,7.7,18.7,7.7c7.1,0,13.7-2.7,18.7-7.7
			l14.1-14.1l18.6,18.6c5,5.1,11.8,7.8,18.9,7.8s13.9-2.8,18.9-7.8c5.3-5.3,7.9-12.4,7.8-19.4c0.2,0,0.3,0,0.5,0
			c7.1,0,13.9-2.8,18.9-7.8c5.3-5.3,7.9-12.4,7.8-19.4c0.2,0,0.3,0,0.5,0c6.8,0,13.7-2.6,18.9-7.8c5.1-5,7.8-11.8,7.8-18.9
			c0-0.2,0-0.3,0-0.5c0.2,0,0.3,0,0.5,0c6.8,0,13.7-2.6,18.9-7.8c5.7-5.7,8.2-13.3,7.8-20.7l45.7-45.7c2.9-2.9,2.9-7.7,0-10.6
			C425.9,290.2,421.1,290.2,418.2,293.1L418.2,293.1z M116,356c-2.2-2.2-3.3-5-3.3-8c0-3,1.2-5.9,3.3-8.1l16.2-16.2
			c2.2-2.2,5.1-3.3,8.1-3.3c2.9,0,5.8,1.1,8,3.3c4.4,4.4,4.4,11.7,0,16.1L132.1,356C127.7,360.4,120.5,360.4,116,356L116,356z
			 M150.8,386c-3,0-5.9-1.2-8.1-3.3s-3.3-5-3.3-8s1.2-5.9,3.3-8.1l16.2-16.2l10.1-10.1c2.2-2.2,5-3.3,8-3.3c3,0,5.9,1.2,8,3.3
			c2.2,2.2,3.3,5,3.3,8.1s-1.2,5.9-3.3,8.1l-26.3,26.3C156.7,384.8,153.8,386,150.8,386L150.8,386z M169.5,409.4
			c-4.4-4.4-4.4-11.7,0-16.1l17.9-17.9c2.2-2.2,5.1-3.3,8.1-3.3c2.9,0,5.8,1.1,8,3.3c2.2,2.2,3.3,5,3.3,8.1c0,3-1.2,5.9-3.3,8
			l-17.9,17.9C181.1,413.9,173.9,413.9,169.5,409.4L169.5,409.4z M212.8,436.6c-2.2,2.2-5,3.3-8,3.3c-3,0-5.9-1.2-8-3.3l-0.5-0.5
			c-4.4-4.4-4.4-11.7,0-16.1l17.9-17.9c0,0,0,0,0,0l2.2-2.3c2.2-2.2,5.1-3.3,8.1-3.3c2.9,0,5.8,1.1,8,3.3l0.5,0.5
			c4.4,4.4,4.4,11.7,0,16.1L212.8,436.6z"/>
	</g>
	<g>
		<path class="st0" d="M512.7,228.7c-2.9-2.9-7.7-2.9-10.6,0l-28.2,28.2c-0.4,0.4-1,0.4-1.4,0l-99.6-95.1c-0.2-0.2-0.3-0.4-0.3-0.7
			c0-0.3,0.1-0.5,0.3-0.7l59.1-59.1c2.9-2.9,2.9-7.7,0-10.6c-2.9-2.9-7.7-2.9-10.6,0l-59.1,59.1c-3.1,3.1-4.7,7.2-4.7,11.5
			c0,3.5,1.2,6.8,3.3,9.5l-27,26.5L308.4,183c-3.3-1.9-7.1-2.8-10.9-2.8h-72.3l-5.5-5.5c-5.1-5.1-11.1-9-17.9-11.6l-20-7.6l-9.3-9.3
			c4.8-8,3.8-18.6-3.1-25.5l-30.2-30.2c-2.9-2.9-7.7-2.9-10.6,0c-2.9,2.9-2.9,7.7,0,10.6l30.2,30.2c2.3,2.3,2.3,6,0,8.3l-61.3,61.3
			c-2.9,2.9-2.9,7.7,0,10.6c1.5,1.5,3.4,2.2,5.3,2.2c1.9,0,3.8-0.7,5.3-2.2l54.3-54.3l9.9,9.9c0.7,0.7,1.6,1.3,2.6,1.7l21.5,8.2
			c4.6,1.8,8.8,4.4,12.3,7.9c-0.5,0.4-0.9,0.8-1.3,1.2l-28.6,28.6c-5.7,5.7-8.8,13.2-8.8,21.2c0,8,3.1,15.6,8.8,21.2
			c5.9,5.9,13.5,8.8,21.2,8.8c6.7,0,13.5-2.3,19.1-6.9l21.6-17.8h22.5l25.7,25.7c1.5,1.5,3.4,2.2,5.3,2.2s3.8-0.7,5.3-2.2
			c2.9-2.9,2.9-7.7,0-10.6L281.1,238c0.7-1.2,1.2-2.5,1.2-4c0-4.2-3.4-7.5-7.5-7.5h-36.7c-1.7,0-3.4,0.6-4.8,1.7l-23.7,19.5
			c-6,4.9-14.6,4.5-20.1-1c-2.8-2.8-4.4-6.6-4.4-10.6c0-4,1.6-7.8,4.4-10.6l28.6-28.6c1.1-1.1,2.5-1.7,4-1.7h75.5
			c1.3,0,2.5,0.3,3.6,0.9l28.2,15.7c4.2,2.3,9.5,1.6,12.9-1.7l29.4-28.9l81,77.4l-11.8,11.8c-2.9,2.9-2.9,7.7,0,10.6
			c1.5,1.5,3.4,2.2,5.3,2.2s3.8-0.7,5.3-2.2l12.1-12.1c2.8,2.1,6.2,3.1,9.6,3.1c4.1,0,8.2-1.6,11.4-4.7l28.2-28.2
			C515.6,236.3,515.6,231.6,512.7,228.7L512.7,228.7z"/>
	</g>
</g>
<g>
	<g>
		<g>
			<g>
				<path class="st0" d="M921.5,74.2h-0.1c-18.5,0.3-33.6,15.6-33.6,34.1V157h-50.3c-4.2,0-7.5,3.4-7.5,7.5s3.4,7.5,7.5,7.5h50.3
					v39.6h-50.3c-4.2,0-7.5,3.4-7.5,7.5s3.4,7.5,7.5,7.5h50.3v39.6h-50.3c-4.2,0-7.5,3.4-7.5,7.5s3.4,7.5,7.5,7.5h50.3v39.6h-50.3
					c-4.2,0-7.5,3.4-7.5,7.5s3.4,7.5,7.5,7.5h50.3v39.6h-50.3c-4.2,0-7.5,3.4-7.5,7.5s3.4,7.5,7.5,7.5h50.3v25.8
					c0,4.2,3.4,7.5,7.5,7.5c4.2,0,7.5-3.4,7.5-7.5V108.3c0-10.3,8.4-18.9,18.7-19c4.2-0.1,7.5-3.5,7.4-7.6
					C929,77.5,925.7,74.2,921.5,74.2z"/>
			</g>
		</g>
	</g>
	<g>
		<g>
			<g>
				<path class="st0" d="M1240.2,455.5H921.9c-7.8,0-14.7-4.6-17.6-11.8c-1.6-3.9-6-5.7-9.8-4.1c-3.9,1.6-5.7,6-4.1,9.8
					c5.3,12.9,17.7,21.2,31.6,21.2h47.2v51.8c0,4.2,3.4,7.5,7.5,7.5s7.5-3.4,7.5-7.5v-51.8h39.6v51.8c0,4.2,3.4,7.5,7.5,7.5
					c4.2,0,7.5-3.4,7.5-7.5v-51.8h39.6v51.8c0,4.2,3.4,7.5,7.5,7.5c4.2,0,7.5-3.4,7.5-7.5v-51.8h39.6v51.8c0,4.2,3.4,7.5,7.5,7.5
					c4.2,0,7.5-3.4,7.5-7.5v-51.8h39.6v51.8c0,4.2,3.4,7.5,7.5,7.5s7.5-3.4,7.5-7.5v-51.8h37.2c4.2,0,7.5-3.4,7.5-7.5
					C1247.7,458.9,1244.4,455.5,1240.2,455.5z"/>
			</g>
		</g>
	</g>
	<g>
		<g>
			<g>
				<path class="st0" d="M1334.5,226.8c4.2,0,7.5-3.4,7.5-7.5s-3.4-7.5-7.5-7.5h-50.3v-39.6h50.3c4.2,0,7.5-3.4,7.5-7.5
					s-3.4-7.5-7.5-7.5h-50.3v-48.7c0-18.8-15.3-34.1-34.1-34.1h-47.2V25.5c0-4.2-3.4-7.5-7.5-7.5c-4.2,0-7.5,3.4-7.5,7.5v48.7h-39.6
					V25.5c0-4.2-3.4-7.5-7.5-7.5s-7.5,3.4-7.5,7.5v48.7h-39.6V25.5c0-4.2-3.4-7.5-7.5-7.5s-7.5,3.4-7.5,7.5v48.7h-39.6V25.5
					c0-4.2-3.4-7.5-7.5-7.5s-7.5,3.4-7.5,7.5v48.7h-39.6V25.5c0-4.2-3.4-7.5-7.5-7.5s-7.5,3.4-7.5,7.5v48.7h-17.4
					c-4.2,0-7.5,3.4-7.5,7.5c0,4.2,3.4,7.5,7.5,7.5c39.5,0,266.8,0,298.4,0c10.5,0,19,8.5,19,19v328.2c0,5.3-2.1,10.1-5.9,13.8
					c-3,2.9-3.1,7.6-0.3,10.7c1.5,1.6,3.5,2.3,5.5,2.3c1.9,0,3.7-0.7,5.2-2.1c6.8-6.5,10.6-15.3,10.6-24.7v-45.6h50.3
					c4.2,0,7.5-3.4,7.5-7.5s-3.4-7.5-7.5-7.5h-50.3v-39.6h50.3c4.2,0,7.5-3.4,7.5-7.5s-3.4-7.5-7.5-7.5h-50.3v-39.6h50.3
					c4.2,0,7.5-3.4,7.5-7.5c0-4.2-3.4-7.5-7.5-7.5h-50.3v-39.6L1334.5,226.8L1334.5,226.8z"/>
			</g>
		</g>
	</g>
</g>
<g>
	<g>
		<path class="st0" d="M1054.7,392.2l24.4,8.9c2.2,0.8,4.6,1.2,7,1.2c2.4,0,4.7-0.4,7-1.2l24.4-8.9c22.1-8.1,41.8-21.8,57-39.7
			c15.1-17.7,25.4-39.1,30-61.8c1-4.8-2.1-9.4-6.9-10.4c-4.8-1-9.4,2.1-10.4,6.9c-8.1,40.4-37.1,74.3-75.8,88.5l-24.4,8.9
			c-0.6,0.2-1.2,0.2-1.8,0l-24.4-8.9c-46.7-17.1-78.1-62.1-78.1-111.9v-76.6c0-2.1,1.5-3.9,3.5-4.3l100.4-19.6l99.4,19.5
			c2,0.4,3.5,2.2,3.5,4.3v64.2c0,4.9,3.9,8.8,8.8,8.8c4.9,0,8.8-3.9,8.8-8.8v-64.2c0-10.5-7.5-19.6-17.7-21.6l-101-19.9
			c-1.1-0.2-2.3-0.2-3.4,0l-102.1,19.9c-10.3,2-17.8,11.1-17.8,21.6v76.6C965,320.9,1001,372.5,1054.7,392.2L1054.7,392.2z"/>
	</g>
	<g>
		<path class="st0" d="M1088.2,181.6c-1.1-0.2-2.3-0.2-3.4,0l-77.5,15.1c-4.1,0.8-7.1,4.4-7.1,8.7v58.4c0,42.4,26.8,80.7,66.6,95.3
			l16.2,5.9c1,0.4,2,0.5,3,0.5c1,0,2.1-0.2,3-0.5l16.2-5.9c39.8-14.6,66.6-52.9,66.6-95.3v-58.5c0-4.2-3-7.8-7.1-8.6L1088.2,181.6z
			 M1154.2,263.8c0,35-22.1,66.7-55,78.8l-13.1,4.8l-13.1-4.8c-32.9-12.1-55-43.7-55-78.8v-51.2l68.7-13.4l67.6,13.3V263.8z"/>
	</g>
	<g>
		<path class="st0" d="M1063.4,280.1c-3.5-3.3-9.1-3.2-12.5,0.4c-3.3,3.5-3.2,9.1,0.4,12.5l14.2,13.4c1.6,1.5,3.8,2.4,6,2.4
			c0.2,0,0.4,0,0.6,0c2.4-0.2,4.7-1.3,6.2-3.2l46.1-56c3.1-3.8,2.6-9.3-1.2-12.4c-3.8-3.1-9.3-2.6-12.4,1.2l-40.1,48.7L1063.4,280.1
			z"/>
	</g>
</g>
<g>
	<g>
		<path class="st0" d="M1789,18h-75c-48.8,0-88.5,39.7-88.5,88.5c0,48.8,39.7,88.5,88.5,88.5h94.4l17.8,40.9
			c1.3,3.1,4.4,5.1,7.8,5.1c3.4,0,6.4-2,7.8-5.1l17.8-40.9h94.4c48.8,0,88.5-39.7,88.5-88.5c0-48.8-39.7-88.5-88.5-88.5h-75
			c-4.7,0-8.5,3.8-8.5,8.5s3.8,8.5,8.5,8.5h75c39.4,0,71.5,32.1,71.5,71.5S1993.5,178,1954,178h-100c-3.4,0-6.4,2-7.8,5.1
			l-12.2,28.1l-12.2-28.1c-1.3-3.1-4.4-5.1-7.8-5.1h-100c-39.4,0-71.5-32.1-71.5-71.5S1674.6,35,1714,35h75c4.7,0,8.5-3.8,8.5-8.5
			S1793.7,18,1789,18z"/>
	</g>
	<g>
		<path class="st0" d="M1892.5,322.5c0-32.3-26.2-58.5-58.5-58.5s-58.5,26.2-58.5,58.5s26.2,58.5,58.5,58.5
			S1892.5,354.7,1892.5,322.5z M1834,364c-22.9,0-41.5-18.6-41.5-41.5s18.6-41.5,41.5-41.5s41.5,18.6,41.5,41.5S1856.9,364,1834,364
			z"/>
	</g>
	<g>
		<path class="st0" d="M1998,264c-32.3,0-58.5,26.2-58.5,58.5s26.2,58.5,58.5,58.5s58.5-26.2,58.5-58.5S2030.3,264,1998,264z
			 M1998,364c-22.9,0-41.5-18.6-41.5-41.5s18.6-41.5,41.5-41.5s41.5,18.6,41.5,41.5S2020.9,364,1998,364z"/>
	</g>
	<g>
		<path class="st0" d="M1914,78c-15.7,0-28.5,12.8-28.5,28.5s12.8,28.5,28.5,28.5s28.5-12.8,28.5-28.5S1929.8,78,1914,78z M1914,118
			c-6.3,0-11.5-5.2-11.5-11.5S1907.7,95,1914,95s11.5,5.2,11.5,11.5S1920.4,118,1914,118z"/>
	</g>
	<g>
		<path class="st0" d="M1834,135c15.7,0,28.5-12.8,28.5-28.5S1849.8,78,1834,78s-28.5,12.8-28.5,28.5S1818.3,135,1834,135z M1834,95
			c6.3,0,11.5,5.2,11.5,11.5s-5.2,11.5-11.5,11.5s-11.5-5.2-11.5-11.5S1827.7,95,1834,95z"/>
	</g>
	<g>
		<path class="st0" d="M1754,78c-15.7,0-28.5,12.8-28.5,28.5s12.8,28.5,28.5,28.5s28.5-12.8,28.5-28.5S1769.8,78,1754,78z M1754,118
			c-6.3,0-11.5-5.2-11.5-11.5S1747.7,95,1754,95s11.5,5.2,11.5,11.5S1760.4,118,1754,118z"/>
	</g>
	<g>
		<circle class="st0" cx="1834" cy="26.5" r="8.5"/>
	</g>
	<g>
		<path class="st0" d="M1579.5,472.5v46c0,4.7,3.8,8.5,8.5,8.5h492c4.7,0,8.5-3.8,8.5-8.5v-46c0-23.5-9.5-45.7-26.8-62.5
			c-17.2-16.7-39.8-26-63.7-26c-33.5,0-65.1,19.1-80.7,48.7l-1.3,2.5l-1.3-2.5c-15.5-29.6-47.2-48.7-80.7-48.7
			c-33.5,0-65.1,19.1-80.7,48.7l-1.3,2.5l-1.3-2.5c-15.5-29.6-47.2-48.7-80.7-48.7c-23.8,0-46.4,9.2-63.7,26
			C1589.1,426.7,1579.5,449,1579.5,472.5z M1924.5,472.5c0-38.8,33.7-71.5,73.5-71.5s73.5,32.7,73.5,71.5V510h-147V472.5z
			 M1760.5,472.5c0-38.8,33.7-71.5,73.5-71.5s73.5,32.7,73.5,71.5V510h-147V472.5z M1670,401c39.8,0,73.5,32.7,73.5,71.5V510h-147
			v-37.5C1596.5,433.7,1630.2,401,1670,401z"/>
	</g>
	<g>
		<path class="st0" d="M1670,381c32.3,0,58.5-26.2,58.5-58.5S1702.3,264,1670,264s-58.5,26.2-58.5,58.5S1637.8,381,1670,381z
			 M1670,281c22.9,0,41.5,18.6,41.5,41.5S1692.9,364,1670,364s-41.5-18.6-41.5-41.5S1647.2,281,1670,281z"/>
	</g>
</g>
</svg>
